<svg xmlns="http://www.w3.org/2000/svg" version="1.0" width="512.000000pt" height="512.000000pt" viewBox="0 0 512.000000 512.000000" preserveAspectRatio="xMidYMid meet">

<g transform="translate(0.000000,512.000000) scale(0.100000,-0.100000)" fill="#d6cb19" stroke="none">
<path d="M2560 5069 c-119 -23 -245 -123 -296 -234 -14 -30 -26 -55 -27 -55 -1 0 -31 9 -65 20 -199 62 -411 -28 -503 -216 -17 -34 -33 -80 -36 -103 -3 -22 -7 -41 -10 -41 -2 0 -32 9 -66 21 -207 70 -427 -76 -444 -295 -10 -119 47 -241 144 -305 l50 -33 -13 -37 c-57 -159 68 -331 240 -331 61 0 132 24 167 56 16 14 18 11 33 -34 36 -107 132 -206 246 -253 75 -31 221 -32 296 -2 l52 20 16 -34 c26 -54 91 -117 153 -149 51 -26 68 -29 148 -29 78 0 98 4 146 28 61 29 129 96 155 150 l16 34 52 -20 c75 -30 220 -29 296 2 114 47 198 132 246 249 13 33 25 49 29 42 4 -7 31 -23 59 -36 129 -60 277 -9 342 119 23 44 29 134 11 184 l-14 42 48 30 c95 59 154 178 147 297 -14 227 -232 377 -445 305 -34 -12 -65 -21 -68 -21 -3 0 -5 12 -5 28 -1 39 -41 133 -83 190 -99 135 -292 194 -459 142 -34 -11 -64 -20 -65 -20 -1 0 -13 25 -27 55 -52 115 -177 211 -305 235 -62 12 -98 11 -161 -1z" fill="#d6cb19"/>
<path d="M4049 3527 c-23 -17 -39 -52 -39 -82 0 -38 -35 -100 -71 -126 -33 -23 -110 -36 -152 -25 -13 3 -41 19 -62 36 -69 55 -129 30 -159 -65 -34 -104 -122 -188 -230 -220 -71 -21 -126 -19 -214 11 -93 31 -121 25 -152 -35 -49 -96 -114 -143 -221 -160 -79 -13 -99 -33 -99 -100 0 -129 143 -241 306 -241 89 0 150 -18 179 -52 23 -27 25 -37 25 -134 0 -98 2 -107 25 -129 24 -25 65 -32 100 -19 32 13 45 59 45 159 0 53 5 105 10 116 19 35 68 50 194 59 66 5 146 17 176 26 292 87 446 354 467 805 l6 137 -26 26 c-29 28 -80 35 -108 13z" fill="#d6cb19"/>
<path d="M955 2416 c-40 -17 -82 -67 -95 -114 -14 -53 -14 -2083 1 -2137 15 -51 65 -100 118 -115 29 -7 112 -10 240 -8 223 3 241 9 289 80 l27 42 3 1048 c2 709 -1 1062 -8 1088 -13 49 -54 99 -97 116 -45 19 -435 19 -478 0z" fill="#d6cb19"/>
<path d="M117 2165 c-47 -16 -81 -46 -101 -90 -14 -29 -16 -130 -16 -837 l0 -805 23 -43 c16 -30 37 -51 67 -67 42 -22 50 -23 317 -23 l273 0 0 940 0 940 -262 0 c-197 -1 -273 -4 -301 -15z" fill="#d6cb19"/>
<path d="M1710 1240 l0 -940 1638 0 1639 0 43 23 c30 16 51 37 67 67 l23 43 0 804 c0 769 -1 805 -19 841 -10 20 -28 45 -39 55 -50 46 -56 46 -829 47 l-731 0 -162 -282 c-89 -156 -164 -294 -167 -308 -3 -19 11 -49 61 -125 96 -146 97 -138 -72 -307 -118 -119 -142 -138 -169 -138 -78 0 -93 30 -93 186 l0 116 -115 118 c-99 101 -115 122 -115 150 0 24 41 105 149 294 83 144 153 269 157 279 6 16 -32 17 -630 17 l-636 0 0 -940z" fill="#d6cb19"/>
</g>
</svg>