<?xml version="1.0" encoding="UTF-8"?>
<!DOCTYPE svg PUBLIC "-//W3C//DTD SVG 1.1//EN" "http://www.w3.org/Graphics/SVG/1.1/DTD/svg11.dtd">
<svg xmlns="http://www.w3.org/2000/svg" version="1.1" width="407px" height="613px" style="shape-rendering:geometricPrecision; text-rendering:geometricPrecision; image-rendering:optimizeQuality; fill-rule:evenodd; clip-rule:evenodd" xmlns:xlink="http://www.w3.org/1999/xlink">
<g><path style="opacity:1" fill="#d0393a" d="M 241.5,159.5 C 232.176,158.403 222.843,157.237 213.5,156C 201.5,155.333 189.5,155.333 177.5,156C 172.021,156.523 166.688,157.523 161.5,159C 153.49,161.392 145.49,163.892 137.5,166.5C 138.694,165.728 139.694,164.728 140.5,163.5C 147.167,162.276 153.501,160.276 159.5,157.5C 187.021,150.378 214.354,151.044 241.5,159.5 Z"/></g>
<g><path style="opacity:1" fill="#eb1a22" d="M 241.5,159.5 C 241.833,159.5 242.167,159.5 242.5,159.5C 249.014,164.017 256.347,167.017 264.5,168.5C 266.709,171.33 269.709,172.997 273.5,173.5C 273.833,173.5 274.167,173.5 274.5,173.5C 274.414,174.496 274.748,175.329 275.5,176C 284.275,182.264 292.942,188.764 301.5,195.5C 305.487,200.82 310.154,205.487 315.5,209.5C 315.343,210.873 315.51,212.207 316,213.5C 318.192,216.922 321.025,219.588 324.5,221.5C 324.913,223.89 325.579,226.223 326.5,228.5C 328.943,232.411 331.61,236.078 334.5,239.5C 334.624,243.748 336.29,247.082 339.5,249.5C 339.5,249.833 339.5,250.167 339.5,250.5C 340.842,259.711 343.008,268.711 346,277.5C 348.293,291.397 348.959,305.397 348,319.5C 345.598,327.243 344.265,335.243 344,343.5C 340.112,352.147 337.278,361.147 335.5,370.5C 335.5,370.833 335.5,371.167 335.5,371.5C 334.265,371.721 333.265,372.388 332.5,373.5C 329.252,380.74 325.585,387.74 321.5,394.5C 318.588,396.066 315.921,398.066 313.5,400.5C 312.914,400.291 312.414,399.957 312,399.5C 312.487,405.427 309.82,409.76 304,412.5C 303.517,413.448 303.351,414.448 303.5,415.5C 302.5,417.167 301.167,418.5 299.5,419.5C 298.448,419.351 297.448,419.517 296.5,420C 288.932,426.202 280.932,431.869 272.5,437C 271.748,437.671 271.414,438.504 271.5,439.5C 266.052,440.556 261.052,442.722 256.5,446C 248.759,448.184 241.425,451.018 234.5,454.5C 234.167,454.5 233.833,454.5 233.5,454.5C 229.671,453.931 226.337,454.598 223.5,456.5C 205.5,457.833 187.5,457.833 169.5,456.5C 169.389,455.883 169.056,455.383 168.5,455C 163.97,453.368 159.304,452.368 154.5,452C 145.01,448.748 135.677,445.248 126.5,441.5C 124.847,441.34 123.514,440.674 122.5,439.5C 122.586,438.504 122.252,437.671 121.5,437C 117.167,434 112.833,431 108.5,428C 107.207,427.51 105.873,427.343 104.5,427.5C 101.001,420.663 95.6677,415.997 88.5,413.5C 86.5243,409.194 83.5243,405.86 79.5,403.5C 78.5,403.167 77.8333,402.5 77.5,401.5C 74.3795,394.234 70.0462,387.9 64.5,382.5C 64.6567,381.127 64.49,379.793 64,378.5C 61.6478,373.118 58.8145,368.118 55.5,363.5C 53.3827,356.256 51.5493,348.923 50,341.5C 49.3918,339.934 48.5585,338.6 47.5,337.5C 45.606,322.559 45.106,307.559 46,292.5C 47.8954,281.188 49.7287,269.854 51.5,258.5C 51.5,258.167 51.5,257.833 51.5,257.5C 57.9124,247.291 63.5791,236.625 68.5,225.5C 70.969,222.856 73.3024,220.023 75.5,217C 76.5,216.667 77.5,216.333 78.5,216C 77.5494,215.282 77.3828,214.449 78,213.5C 79.9874,212.782 81.8208,211.782 83.5,210.5C 84.7111,209.28 84.7111,208.113 83.5,207C 85.1412,205.871 86.1412,204.371 86.5,202.5C 89.9015,199.105 92.9015,195.438 95.5,191.5C 96.5846,189.413 98.2512,188.08 100.5,187.5C 110.386,182.731 119.386,176.731 127.5,169.5C 131.007,169.08 134.341,168.08 137.5,166.5C 145.49,163.892 153.49,161.392 161.5,159C 166.688,157.523 172.021,156.523 177.5,156C 189.5,155.333 201.5,155.333 213.5,156C 222.843,157.237 232.176,158.403 241.5,159.5 Z M 144.5,232.5 C 145.167,233.833 146.167,234.833 147.5,235.5C 151.167,239.833 155.167,243.833 159.5,247.5C 164.5,253.167 169.833,258.5 175.5,263.5C 181.964,270.465 188.631,277.298 195.5,284C 197.352,284.773 198.686,284.273 199.5,282.5C 202.597,280.349 205.263,277.683 207.5,274.5C 218.833,263.833 229.833,252.833 240.5,241.5C 243.859,238.471 247.192,235.471 250.5,232.5C 262.927,226.714 270.594,230.547 273.5,244C 272.867,248.432 271.033,252.266 268,255.5C 258.298,265.035 248.798,274.702 239.5,284.5C 234.56,287.77 230.227,291.77 226.5,296.5C 222.933,298.901 220.266,302.068 218.5,306C 221.339,311.338 225.339,315.504 230.5,318.5C 234.494,324.494 239.494,329.494 245.5,333.5C 248.5,337.167 251.833,340.5 255.5,343.5C 257.833,346.5 260.5,349.167 263.5,351.5C 268.492,355.983 271.826,361.483 273.5,368C 272.717,373.749 270.051,378.249 265.5,381.5C 265.167,381.5 264.833,381.5 264.5,381.5C 259.524,383.038 254.858,382.372 250.5,379.5C 250.167,379.5 249.833,379.5 249.5,379.5C 242.167,371.5 234.5,363.833 226.5,356.5C 218.5,347.833 210.167,339.5 201.5,331.5C 200.207,329.704 198.707,328.037 197,326.5C 179.86,343.64 162.694,360.806 145.5,378C 139.091,383.482 132.424,383.815 125.5,379C 119.782,372.526 119.282,365.692 124,358.5C 126.372,356.297 128.539,353.963 130.5,351.5C 133.167,349.5 135.5,347.167 137.5,344.5C 140.5,342.167 143.167,339.5 145.5,336.5C 156.061,326.773 166.061,316.606 175.5,306C 171.013,299.013 165.347,293.18 158.5,288.5C 151.167,280.5 143.5,272.833 135.5,265.5C 132.833,262.167 129.833,259.167 126.5,256.5C 120.126,249.709 119.293,242.375 124,234.5C 130.326,228.64 137.16,227.973 144.5,232.5 Z"/></g>
<g><path style="opacity:0.671" fill="#c95a58" d="M 159.5,157.5 C 153.501,160.276 147.167,162.276 140.5,163.5C 146.499,160.724 152.833,158.724 159.5,157.5 Z"/></g>
<g><path style="opacity:0.839" fill="#cb4f4f" d="M 242.5,159.5 C 250.357,161.435 257.69,164.435 264.5,168.5C 256.347,167.017 249.014,164.017 242.5,159.5 Z"/></g>
<g><path style="opacity:0.82" fill="#c3514f" d="M 140.5,163.5 C 139.694,164.728 138.694,165.728 137.5,166.5C 134.341,168.08 131.007,169.08 127.5,169.5C 131.405,166.716 135.738,164.716 140.5,163.5 Z"/></g>
<g><path style="opacity:0.835" fill="#c75e59" d="M 264.5,168.5 C 267.992,169.41 270.992,171.076 273.5,173.5C 269.709,172.997 266.709,171.33 264.5,168.5 Z"/></g>
<g><path style="opacity:1" fill="#c8393d" d="M 127.5,169.5 C 119.386,176.731 110.386,182.731 100.5,187.5C 108.407,179.939 117.407,173.939 127.5,169.5 Z"/></g>
<g><path style="opacity:0.573" fill="#c74d4c" d="M 274.5,173.5 C 290.685,182.689 304.352,194.689 315.5,209.5C 310.154,205.487 305.487,200.82 301.5,195.5C 292.942,188.764 284.275,182.264 275.5,176C 274.748,175.329 274.414,174.496 274.5,173.5 Z"/></g>
<g><path style="opacity:0.784" fill="#bf3b3e" d="M 95.5,191.5 C 92.9015,195.438 89.9015,199.105 86.5,202.5C 84.4268,204.58 82.0934,206.246 79.5,207.5C 84.5,201.833 89.8333,196.5 95.5,191.5 Z"/></g>
<g><path style="opacity:1" fill="#da2a2d" d="M 86.5,202.5 C 86.1412,204.371 85.1412,205.871 83.5,207C 84.7111,208.113 84.7111,209.28 83.5,210.5C 81.8208,211.782 79.9874,212.782 78,213.5C 77.3828,214.449 77.5494,215.282 78.5,216C 77.5,216.333 76.5,216.667 75.5,217C 73.3024,220.023 70.969,222.856 68.5,225.5C 69.1667,223.833 69.8333,222.167 70.5,220.5C 73.1173,215.886 76.1173,211.553 79.5,207.5C 82.0934,206.246 84.4268,204.58 86.5,202.5 Z"/></g>
<g><path style="opacity:1" fill="#cd3a3c" d="M 315.5,209.5 C 319.262,212.929 322.262,216.929 324.5,221.5C 321.025,219.588 318.192,216.922 316,213.5C 315.51,212.207 315.343,210.873 315.5,209.5 Z"/></g>
<g><path style="opacity:0.973" fill="#cb4948" d="M 70.5,220.5 C 69.8333,222.167 69.1667,223.833 68.5,225.5C 63.5791,236.625 57.9124,247.291 51.5,257.5C 55.4937,243.843 61.827,231.51 70.5,220.5 Z"/></g>
<g><path style="opacity:1" fill="#c73d3f" d="M 144.5,232.5 C 137.16,227.973 130.326,228.64 124,234.5C 119.293,242.375 120.126,249.709 126.5,256.5C 123.287,255.836 121.121,253.836 120,250.5C 119.333,246.833 119.333,243.167 120,239.5C 120.99,236.374 122.156,233.374 123.5,230.5C 126.861,229.163 130.361,228.163 134,227.5C 138.601,227.198 142.101,228.864 144.5,232.5 Z"/></g>
<g><path style="opacity:0.898" fill="#c73e41" d="M 324.5,221.5 C 328.858,226.879 332.192,232.879 334.5,239.5C 331.61,236.078 328.943,232.411 326.5,228.5C 325.579,226.223 324.913,223.89 324.5,221.5 Z"/></g>
<g><path style="opacity:0.678" fill="#bc383e" d="M 147.5,235.5 C 152.527,238.527 156.527,242.527 159.5,247.5C 155.167,243.833 151.167,239.833 147.5,235.5 Z"/></g>
<g><path style="opacity:0.298" fill="#c63c3b" d="M 250.5,232.5 C 247.192,235.471 243.859,238.471 240.5,241.5C 241.263,238.985 242.763,236.985 245,235.5C 245.49,234.207 245.657,232.873 245.5,231.5C 247.216,231.629 248.883,231.962 250.5,232.5 Z"/></g>
<g><path style="opacity:0.89" fill="#c64748" d="M 334.5,239.5 C 336.674,242.515 338.341,245.849 339.5,249.5C 336.29,247.082 334.624,243.748 334.5,239.5 Z"/></g>
<g><path style="opacity:0.675" fill="#c3363c" d="M 159.5,247.5 C 161.697,248.845 164.03,250.011 166.5,251C 167.823,251.816 168.489,252.983 168.5,254.5C 171.239,257.233 173.573,260.233 175.5,263.5C 169.833,258.5 164.5,253.167 159.5,247.5 Z"/></g>
<g><path style="opacity:0.788" fill="#c13537" d="M 126.5,256.5 C 129.833,259.167 132.833,262.167 135.5,265.5C 131.5,263.5 128.5,260.5 126.5,256.5 Z"/></g>
<g><path style="opacity:1" fill="#d9292c" d="M 240.5,241.5 C 229.833,252.833 218.833,263.833 207.5,274.5C 205.938,274.733 204.605,275.4 203.5,276.5C 203.343,275.127 203.51,273.793 204,272.5C 205.183,273.731 206.349,273.731 207.5,272.5C 208.747,270.958 208.747,269.458 207.5,268C 212.105,265.862 216.105,262.195 219.5,257C 221.134,256.506 222.801,256.34 224.5,256.5C 224.5,254.833 224.5,253.167 224.5,251.5C 226.167,251.5 227.833,251.5 229.5,251.5C 229.703,249.61 229.037,248.11 227.5,247C 229.302,243.923 231.302,243.757 233.5,246.5C 234.747,244.994 234.747,243.494 233.5,242C 235.81,241.503 238.143,241.337 240.5,241.5 Z"/></g>
<g><path style="opacity:1" fill="#db252a" d="M 168.5,254.5 C 172.058,256.254 175.225,258.587 178,261.5C 178.333,260.833 178.667,260.167 179,259.5C 179.93,261.552 181.43,263.052 183.5,264C 183.167,264.333 182.833,264.667 182.5,265C 187.899,268.374 191.399,273.207 193,279.5C 194.509,281.919 196.675,282.919 199.5,282.5C 198.686,284.273 197.352,284.773 195.5,284C 188.631,277.298 181.964,270.465 175.5,263.5C 173.573,260.233 171.239,257.233 168.5,254.5 Z"/></g>
<g><path style="opacity:0.729" fill="#c33c3f" d="M 230.5,318.5 C 225.339,315.504 221.339,311.338 218.5,306C 220.266,302.068 222.933,298.901 226.5,296.5C 231.44,293.23 235.773,289.23 239.5,284.5C 248.798,274.702 258.298,265.035 268,255.5C 271.033,252.266 272.867,248.432 273.5,244C 270.594,230.547 262.927,226.714 250.5,232.5C 250.5,231.5 250.5,230.5 250.5,229.5C 255.796,228.491 261.129,228.324 266.5,229C 275.132,235.783 276.965,244.283 272,254.5C 257.167,268 243,282.167 229.5,297C 224.281,298.857 221.447,302.357 221,307.5C 225.095,310.424 228.262,314.09 230.5,318.5 Z"/></g>
<g><path style="opacity:0.945" fill="#ca4d4e" d="M 51.5,258.5 C 49.7287,269.854 47.8954,281.188 46,292.5C 45.106,307.559 45.606,322.559 47.5,337.5C 41.295,310.807 42.6283,284.474 51.5,258.5 Z"/></g>
<g><path style="opacity:0.275" fill="#bf4647" d="M 207.5,274.5 C 205.263,277.683 202.597,280.349 199.5,282.5C 200.415,280.246 201.748,278.246 203.5,276.5C 204.605,275.4 205.938,274.733 207.5,274.5 Z"/></g>
<g><path style="opacity:0.333" fill="#da7576" d="M 239.5,284.5 C 235.773,289.23 231.44,293.23 226.5,296.5C 230.227,291.77 234.56,287.77 239.5,284.5 Z"/></g>
<g><path style="opacity:1" fill="#dc2229" d="M 135.5,265.5 C 143.5,272.833 151.167,280.5 158.5,288.5C 162.48,293.362 166.813,298.028 171.5,302.5C 172.647,304.765 172.814,307.098 172,309.5C 170.989,310.337 169.822,310.67 168.5,310.5C 168.737,311.791 168.404,312.791 167.5,313.5C 167.703,311.61 167.037,310.11 165.5,309C 167.933,306.034 169.433,306.2 170,309.5C 172.631,304.618 171.131,302.618 165.5,303.5C 165.662,301.473 165.495,299.473 165,297.5C 162.417,296.126 159.917,294.626 157.5,293C 155.292,291.164 153.958,288.831 153.5,286C 150.413,283.79 147.079,282.123 143.5,281C 144.641,280.259 144.641,279.425 143.5,278.5C 141.821,277.218 139.987,276.218 138,275.5C 137.339,272.054 136.505,268.721 135.5,265.5 Z"/></g>
<g><path style="opacity:0.854" fill="#c93f42" d="M 339.5,250.5 C 354.283,288.411 354.116,326.411 339,364.5C 338.059,366.727 336.892,368.727 335.5,370.5C 337.278,361.147 340.112,352.147 344,343.5C 344.265,335.243 345.598,327.243 348,319.5C 348.959,305.397 348.293,291.397 346,277.5C 343.008,268.711 340.842,259.711 339.5,250.5 Z"/></g>
<g><path style="opacity:0.341" fill="#c94342" d="M 158.5,288.5 C 165.347,293.18 171.013,299.013 175.5,306C 166.061,316.606 156.061,326.773 145.5,336.5C 146.713,333.775 148.546,331.441 151,329.5C 150.917,325.749 152.751,323.749 156.5,323.5C 158.69,321.993 160.024,319.993 160.5,317.5C 163.303,317.039 165.637,315.705 167.5,313.5C 168.404,312.791 168.737,311.791 168.5,310.5C 169.822,310.67 170.989,310.337 172,309.5C 172.814,307.098 172.647,304.765 171.5,302.5C 166.813,298.028 162.48,293.362 158.5,288.5 Z"/></g>
<g><path style="opacity:0.796" fill="#ce5657" d="M 230.5,318.5 C 231.239,318.369 231.906,318.536 232.5,319C 236.733,324 241.067,328.834 245.5,333.5C 239.494,329.494 234.494,324.494 230.5,318.5 Z"/></g>
<g><path style="opacity:0.773" fill="#be363d" d="M 245.5,333.5 C 249.833,335.833 253.167,339.167 255.5,343.5C 251.833,340.5 248.5,337.167 245.5,333.5 Z"/></g>
<g><path style="opacity:0.698" fill="#bc383c" d="M 255.5,343.5 C 259.167,345.167 261.833,347.833 263.5,351.5C 260.5,349.167 257.833,346.5 255.5,343.5 Z"/></g>
<g><path style="opacity:0.965" fill="#c23335" d="M 137.5,344.5 C 135.5,347.167 133.167,349.5 130.5,351.5C 130.5,350.167 130.5,348.833 130.5,347.5C 133.038,346.957 135.372,345.957 137.5,344.5 Z"/></g>
<g><path style="opacity:1" fill="#d02b31" d="M 201.5,331.5 C 210.167,339.5 218.5,347.833 226.5,356.5C 222.741,355.454 219.408,353.62 216.5,351C 214.762,345.426 211.095,341.593 205.5,339.5C 204.552,336.577 203.219,333.911 201.5,331.5 Z"/></g>
<g><path style="opacity:0.643" fill="#c24648" d="M 263.5,351.5 C 274.586,357.259 277.419,365.925 272,377.5C 270.362,379.734 268.195,381.067 265.5,381.5C 270.051,378.249 272.717,373.749 273.5,368C 271.826,361.483 268.492,355.983 263.5,351.5 Z"/></g>
<g><path style="opacity:0.722" fill="#c84e4b" d="M 47.5,337.5 C 48.5585,338.6 49.3918,339.934 50,341.5C 51.5493,348.923 53.3827,356.256 55.5,363.5C 51.4554,355.359 48.7887,346.693 47.5,337.5 Z"/></g>
<g><path style="opacity:0.718" fill="#c4383c" d="M 201.5,331.5 C 199.181,330.833 196.847,330.666 194.5,331C 177.14,348.36 159.806,365.694 142.5,383C 137.589,384.492 132.589,384.826 127.5,384C 116.754,375.192 115.754,365.358 124.5,354.5C 126.528,353.451 128.528,352.451 130.5,351.5C 128.539,353.963 126.372,356.297 124,358.5C 119.282,365.692 119.782,372.526 125.5,379C 132.424,383.815 139.091,383.482 145.5,378C 162.694,360.806 179.86,343.64 197,326.5C 198.707,328.037 200.207,329.704 201.5,331.5 Z"/></g>
<g><path style="opacity:1" fill="#ca3032" d="M 226.5,356.5 C 234.5,363.833 242.167,371.5 249.5,379.5C 245.4,375.755 240.734,372.755 235.5,370.5C 234.846,368.885 234.346,367.218 234,365.5C 230.888,362.899 228.388,359.899 226.5,356.5 Z"/></g>
<g><path style="opacity:0.906" fill="#c54449" d="M 55.5,363.5 C 58.8145,368.118 61.6478,373.118 64,378.5C 64.49,379.793 64.6567,381.127 64.5,382.5C 60.7119,376.588 57.7119,370.255 55.5,363.5 Z"/></g>
<g><path style="opacity:0.725" fill="#c53e3f" d="M 335.5,371.5 C 332.074,380.036 327.408,387.703 321.5,394.5C 325.585,387.74 329.252,380.74 332.5,373.5C 333.265,372.388 334.265,371.721 335.5,371.5 Z"/></g>
<g><path style="opacity:0.557" fill="#cb5658" d="M 250.5,379.5 C 254.858,382.372 259.524,383.038 264.5,381.5C 263.054,382.94 261.221,383.607 259,383.5C 256.453,383.238 253.953,382.738 251.5,382C 250.748,381.329 250.414,380.496 250.5,379.5 Z"/></g>
<g><path style="opacity:0.925" fill="#c54242" d="M 64.5,382.5 C 70.0462,387.9 74.3795,394.234 77.5,401.5C 72.4382,395.725 68.1049,389.391 64.5,382.5 Z"/></g>
<g><path style="opacity:1" fill="#cd3636" d="M 321.5,394.5 C 316.991,402.683 310.991,409.683 303.5,415.5C 303.351,414.448 303.517,413.448 304,412.5C 309.82,409.76 312.487,405.427 312,399.5C 312.414,399.957 312.914,400.291 313.5,400.5C 315.921,398.066 318.588,396.066 321.5,394.5 Z"/></g>
<g><path style="opacity:0.827" fill="#c73940" d="M 79.5,403.5 C 83.5243,405.86 86.5243,409.194 88.5,413.5C 84.7881,410.789 81.7881,407.456 79.5,403.5 Z"/></g>
<g><path style="opacity:1" fill="#ce3638" d="M 88.5,413.5 C 95.6677,415.997 101.001,420.663 104.5,427.5C 98.2729,423.945 92.9396,419.278 88.5,413.5 Z"/></g>
<g><path style="opacity:0.725" fill="#c73e40" d="M 299.5,419.5 C 291.232,427.636 281.898,434.303 271.5,439.5C 271.414,438.504 271.748,437.671 272.5,437C 280.932,431.869 288.932,426.202 296.5,420C 297.448,419.517 298.448,419.351 299.5,419.5 Z"/></g>
<g><path style="opacity:0.933" fill="#ca3839" d="M 104.5,427.5 C 105.873,427.343 107.207,427.51 108.5,428C 112.833,431 117.167,434 121.5,437C 122.252,437.671 122.586,438.504 122.5,439.5C 115.803,436.489 109.803,432.489 104.5,427.5 Z"/></g>
<g><path style="opacity:0.929" fill="#c63c41" d="M 126.5,441.5 C 135.677,445.248 145.01,448.748 154.5,452C 159.304,452.368 163.97,453.368 168.5,455C 169.056,455.383 169.389,455.883 169.5,456.5C 154.181,454.062 139.847,449.062 126.5,441.5 Z"/></g>
<g><path style="opacity:0.627" fill="#c44143" d="M 271.5,439.5 C 260.048,446.383 247.714,451.383 234.5,454.5C 241.425,451.018 248.759,448.184 256.5,446C 261.052,442.722 266.052,440.556 271.5,439.5 Z"/></g>
<g><path style="opacity:0.682" fill="#c84444" d="M 233.5,454.5 C 230.456,456.011 227.122,456.678 223.5,456.5C 226.337,454.598 229.671,453.931 233.5,454.5 Z"/></g>
<g><path style="opacity:0.761" fill="#c24448" d="M 169.5,456.5 C 187.5,457.833 205.5,457.833 223.5,456.5C 205.506,460.434 187.506,460.434 169.5,456.5 Z"/></g>
</svg>
