<?xml version="1.0" encoding="UTF-8"?>
<!DOCTYPE svg PUBLIC "-//W3C//DTD SVG 1.1//EN" "http://www.w3.org/Graphics/SVG/1.1/DTD/svg11.dtd">
<svg xmlns="http://www.w3.org/2000/svg" version="1.1" width="934px" height="913px" style="shape-rendering:geometricPrecision; text-rendering:geometricPrecision; image-rendering:optimizeQuality; fill-rule:evenodd; clip-rule:evenodd" xmlns:xlink="http://www.w3.org/1999/xlink">
<g><path style="opacity:0.977" fill="#000000" d="M 32.5,29.5 C 318.5,30.8333 604.5,30.8333 890.5,29.5C 890.5,314.833 890.5,600.167 890.5,885.5C 778.532,883.55 666.532,882.883 554.5,883.5C 554.5,879.833 554.5,876.167 554.5,872.5C 662.5,872.5 770.5,872.5 878.5,872.5C 878.5,739.5 878.5,606.5 878.5,473.5C 833.167,473.5 787.833,473.5 742.5,473.5C 742.5,469.833 742.5,466.167 742.5,462.5C 787.833,462.5 833.167,462.5 878.5,462.5C 878.5,322.5 878.5,182.5 878.5,42.5C 741.167,42.5 603.833,42.5 466.5,42.5C 466.5,181.5 466.5,320.5 466.5,459.5C 514.833,459.5 563.167,459.5 611.5,459.5C 611.5,463.167 611.5,466.833 611.5,470.5C 511.834,471.211 412.167,471.877 312.5,472.5C 312.5,468.833 312.5,465.167 312.5,461.5C 360.167,461.5 407.833,461.5 455.5,461.5C 455.5,321.833 455.5,182.167 455.5,42.5C 318.5,42.5 181.5,42.5 44.5,42.5C 44.5,181.833 44.5,321.167 44.5,460.5C 89.5,460.5 134.5,460.5 179.5,460.5C 179.5,464.167 179.5,467.833 179.5,471.5C 134.5,471.5 89.5,471.5 44.5,471.5C 44.5,604.833 44.5,738.167 44.5,871.5C 158.833,871.5 273.167,871.5 387.5,871.5C 387.5,875.167 387.5,878.833 387.5,882.5C 273.167,882.5 158.833,882.5 44.5,882.5C 44.5,883.5 44.5,884.5 44.5,885.5C 40.5,885.5 36.5,885.5 32.5,885.5C 32.5,600.167 32.5,314.833 32.5,29.5 Z"/></g>
</svg>
