<?xml version="1.0" encoding="UTF-8"?>
<!DOCTYPE svg PUBLIC "-//W3C//DTD SVG 1.1//EN" "http://www.w3.org/Graphics/SVG/1.1/DTD/svg11.dtd">
<svg xmlns="http://www.w3.org/2000/svg" version="1.1" width="1890px" height="1417px" style="shape-rendering:geometricPrecision; text-rendering:geometricPrecision; image-rendering:optimizeQuality; fill-rule:evenodd; clip-rule:evenodd" xmlns:xlink="http://www.w3.org/1999/xlink">
<g><path style="opacity:0.977" fill="#000000" d="M 512.5,333.5 C 798.5,334.833 1084.5,334.833 1370.5,333.5C 1370.5,618.833 1370.5,904.167 1370.5,1189.5C 1258.53,1187.55 1146.53,1186.88 1034.5,1187.5C 1034.5,1183.83 1034.5,1180.17 1034.5,1176.5C 1142.5,1176.5 1250.5,1176.5 1358.5,1176.5C 1358.5,1043.5 1358.5,910.5 1358.5,777.5C 1313.17,777.5 1267.83,777.5 1222.5,777.5C 1222.5,773.833 1222.5,770.167 1222.5,766.5C 1267.83,766.5 1313.17,766.5 1358.5,766.5C 1358.5,626.5 1358.5,486.5 1358.5,346.5C 1221.17,346.5 1083.83,346.5 946.5,346.5C 946.5,485.5 946.5,624.5 946.5,763.5C 994.833,763.5 1043.17,763.5 1091.5,763.5C 1091.5,767.167 1091.5,770.833 1091.5,774.5C 991.834,775.211 892.167,775.877 792.5,776.5C 792.5,772.833 792.5,769.167 792.5,765.5C 840.167,765.5 887.833,765.5 935.5,765.5C 935.5,625.833 935.5,486.167 935.5,346.5C 798.5,346.5 661.5,346.5 524.5,346.5C 524.5,485.833 524.5,625.167 524.5,764.5C 569.5,764.5 614.5,764.5 659.5,764.5C 659.5,768.167 659.5,771.833 659.5,775.5C 614.5,775.5 569.5,775.5 524.5,775.5C 524.5,908.833 524.5,1042.17 524.5,1175.5C 637.167,1175.5 749.833,1175.5 862.5,1175.5C 862.5,1179.17 862.5,1182.83 862.5,1186.5C 749.833,1186.5 637.167,1186.5 524.5,1186.5C 524.5,1187.5 524.5,1188.5 524.5,1189.5C 520.5,1189.5 516.5,1189.5 512.5,1189.5C 512.5,904.167 512.5,618.833 512.5,333.5 Z"/></g>
</svg>
