<?xml version="1.0" standalone="no"?>
<!DOCTYPE svg PUBLIC "-//W3C//DTD SVG 20010904//EN"
 "http://www.w3.org/TR/2001/REC-SVG-20010904/DTD/svg10.dtd">
<svg version="1.0" xmlns="http://www.w3.org/2000/svg"
 width="403.000000pt" height="313.000000pt" viewBox="0 0 403.000000 313.000000"
 preserveAspectRatio="xMidYMid meet">

<g transform="translate(0.000000,313.000000) scale(0.100000,-0.100000)"
fill="#000000" stroke="none">
<path d="M1339 3060 c-566 -89 -1043 -498 -1214 -1040 -92 -293 -85 -659 17
-950 215 -607 783 -1010 1426 -1010 672 0 1268 451 1450 1098 30 106 5 85 -28
-23 -73 -244 -191 -438 -380 -625 -204 -202 -434 -328 -725 -396 -110 -26
-136 -28 -315 -28 -163 0 -211 3 -296 22 -457 99 -815 369 -1027 772 -107 204
-155 391 -164 635 -9 268 27 451 139 694 126 274 393 548 672 688 354 178 785
207 1160 76 337 -117 625 -357 804 -670 54 -95 121 -253 143 -340 12 -49 29
-72 29 -39 0 34 -65 209 -116 313 -75 152 -158 267 -289 398 -207 207 -445
338 -739 407 -73 17 -130 22 -291 24 -110 1 -225 -1 -256 -6z"/>
<path d="M2813 1815 c-3 -9 -3 -55 -1 -103 4 -76 2 -92 -17 -129 -30 -56 -49
-137 -42 -180 7 -39 51 -93 76 -93 10 0 6 5 -9 13 -61 30 -74 125 -30 224 16
37 23 44 30 33 5 -8 10 -24 10 -36 0 -36 29 -120 55 -158 31 -46 31 -52 -2
-65 -24 -10 -25 -10 -3 -5 27 7 46 7 100 1 19 -2 24 -2 10 0 -14 3 -32 11 -41
19 -14 13 -15 19 -3 52 7 20 13 58 14 85 0 46 1 47 30 47 17 0 30 5 30 11 0 6
-7 8 -16 5 -9 -3 -26 -6 -38 -6 -19 0 -22 -4 -18 -25 6 -35 -6 -109 -23 -131
-13 -18 -15 -15 -39 36 -14 30 -33 87 -42 127 l-17 72 26 58 c26 58 37 129 23
151 -10 17 -56 15 -63 -3z m55 -35 c3 -40 -19 -112 -36 -118 -13 -4 -17 112
-6 143 11 29 39 13 42 -25z"/>
<path d="M998 1778 c-25 -47 -15 -117 27 -203 35 -69 40 -89 40 -146 0 -72
-17 -104 -59 -112 -18 -4 -17 -4 5 -6 44 -2 63 31 67 112 3 68 1 77 -37 152
-30 59 -41 92 -41 125 0 50 24 94 46 86 8 -3 14 -1 14 4 0 20 -49 10 -62 -12z"/>
<path d="M1235 1753 c-3 -27 -22 -133 -41 -237 -19 -104 -33 -194 -31 -200 7
-16 27 41 27 74 0 36 5 39 60 31 29 -4 45 -11 47 -21 8 -61 15 -90 23 -90 5 0
7 6 5 13 -2 6 -13 102 -25 212 -11 110 -23 215 -26 233 -8 49 -31 40 -39 -15z
m43 -164 c7 -77 10 -144 7 -149 -5 -8 -74 -3 -84 6 -6 6 51 284 58 284 4 0 13
-63 19 -141z"/>
<path d="M1460 1787 c-34 -17 -47 -61 -55 -187 -7 -120 7 -245 32 -272 20 -22
64 -23 103 -3 30 15 30 16 30 105 l0 90 -37 -1 c-33 -1 -34 -2 -13 -8 23 -6
25 -13 28 -66 3 -62 -11 -110 -34 -119 -18 -7 -61 12 -68 30 -15 39 -27 189
-21 259 9 105 34 165 70 165 15 0 24 4 20 10 -8 13 -25 12 -55 -3z"/>
<path d="M2538 1795 c-3 -6 -14 -46 -23 -90 -10 -44 -21 -84 -25 -89 -5 -4
-21 31 -36 78 -16 47 -31 86 -35 86 -4 0 10 -53 32 -117 37 -111 39 -123 39
-243 1 -85 4 -120 10 -108 6 9 9 84 7 170 -2 136 1 161 21 226 21 65 26 113
10 87z"/>
<path d="M3240 1768 c0 -18 -3 -129 -6 -245 l-6 -213 24 0 c77 0 114 132 64
228 -12 23 -12 31 0 52 16 31 18 143 3 173 -15 28 -28 37 -56 37 -19 0 -23 -6
-23 -32z m60 -7 c5 -11 10 -49 10 -85 0 -53 -4 -70 -20 -86 -12 -12 -25 -18
-30 -15 -11 7 -14 163 -4 189 8 22 31 20 44 -3z m-5 -231 c11 -12 19 -41 22
-82 4 -54 2 -67 -17 -90 -41 -53 -50 -39 -50 82 0 117 7 132 45 90z"/>
<path d="M3633 1773 c-30 -45 -22 -106 27 -205 39 -80 42 -93 38 -148 -5 -63
-24 -95 -62 -104 -13 -2 -10 -4 8 -3 45 3 68 42 68 116 0 52 -7 76 -41 147
-28 58 -41 99 -41 128 0 46 25 90 46 82 8 -3 14 -1 14 4 0 21 -40 9 -57 -17z"/>
<path d="M3836 1788 c-26 -14 -39 -114 -33 -253 6 -168 30 -235 82 -235 54 0
75 68 75 245 0 133 -11 197 -37 226 -17 20 -65 29 -87 17z m64 -18 c10 -5 23
-25 29 -43 16 -48 17 -302 2 -354 -25 -89 -80 -71 -101 33 -16 78 -10 335 9
358 15 18 34 20 61 6z"/>
<path d="M1663 1548 l2 -243 33 -3 c52 -5 76 10 27 17 l-40 6 -3 129 -3 129
31 -7 c23 -4 30 -2 28 7 -3 6 -17 13 -31 15 -27 3 -27 4 -27 89 l0 86 35 -6
c19 -3 35 -2 35 3 0 11 -26 20 -60 20 l-28 0 1 -242z"/>
<path d="M1857 1703 c-6 -107 3 -394 13 -388 4 3 5 97 2 210 -3 140 -2 205 6
205 14 0 132 -322 144 -395 2 -11 10 -20 18 -20 19 0 25 50 35 288 5 135 4
187 -4 187 -7 0 -11 -41 -12 -127 -1 -71 -4 -168 -8 -218 l-7 -90 -16 35 c-9
19 -27 69 -41 110 -41 125 -105 284 -115 288 -5 1 -12 -37 -15 -85z"/>
<path d="M2193 1749 c3 -24 6 -133 6 -241 l1 -198 28 0 c35 0 68 23 89 63 24
47 32 281 10 323 -22 43 -67 81 -106 89 l-33 7 5 -43z m74 -3 c16 -14 35 -43
42 -66 16 -53 17 -212 2 -265 -12 -46 -65 -105 -81 -89 -12 12 -26 356 -16
407 8 44 15 45 53 13z"/>
<path d="M3442 1548 l3 -243 33 -3 c52 -5 76 10 27 17 l-40 6 -3 128 -3 129
23 -3 c13 -2 24 1 26 6 1 6 -9 11 -23 13 -25 3 -25 5 -25 89 l0 86 35 -6 c19
-3 35 -2 35 2 0 10 -35 21 -68 21 l-22 0 2 -242z"/>
</g>
</svg>
