<?xml version="1.0" standalone="no"?>
<!DOCTYPE svg PUBLIC "-//W3C//DTD SVG 20010904//EN"
 "http://www.w3.org/TR/2001/REC-SVG-20010904/DTD/svg10.dtd">
<svg version="1.0" xmlns="http://www.w3.org/2000/svg"
 width="625.000000pt" height="399.000000pt" viewBox="0 0 625.000000 399.000000"
 preserveAspectRatio="xMidYMid meet">

<g transform="translate(0.000000,399.000000) scale(0.100000,-0.100000)"
fill="#000000" stroke="none">
<path d="M2238 3489 c-272 -22 -574 -144 -792 -320 -269 -216 -449 -504 -537
-859 -21 -85 -23 -119 -24 -310 0 -235 9 -301 66 -478 158 -491 561 -870 1059
-997 156 -39 246 -48 428 -42 248 8 403 47 627 157 290 143 524 378 675 680
44 87 125 318 115 328 -11 11 -22 -14 -54 -115 -160 -514 -597 -899 -1146
-1009 -134 -27 -424 -25 -558 4 -339 74 -597 224 -830 482 -166 184 -291 440
-342 700 -23 119 -31 348 -16 462 45 335 187 624 426 863 203 204 451 341 734
406 113 26 382 36 515 20 555 -70 1038 -472 1212 -1010 19 -58 37 -112 39
-119 3 -7 9 -11 14 -8 23 15 -74 272 -158 418 -247 429 -686 708 -1177 748
-138 11 -134 11 -276 -1z"/>
<path d="M3641 2247 c-6 -6 -11 -52 -11 -108 0 -83 -4 -105 -26 -153 -54 -118
-40 -222 33 -253 33 -13 40 -13 72 2 33 15 39 15 75 0 27 -12 42 -13 49 -6 8
8 4 11 -14 11 -14 0 -34 6 -44 14 -16 12 -17 18 -7 57 7 24 13 62 14 84 3 35
6 40 31 43 15 2 27 8 27 14 0 6 -10 8 -22 4 -13 -3 -34 -6 -48 -7 -14 0 -19
-3 -12 -6 23 -9 2 -158 -22 -150 -17 5 -43 64 -67 154 l-22 82 27 61 c33 73
43 125 27 144 -16 19 -47 26 -60 13z m46 -53 c2 -22 -5 -57 -15 -79 l-19 -40
-6 69 c-4 46 -3 74 5 83 18 22 33 9 35 -33z m-7 -349 c6 -16 21 -40 32 -52 18
-19 19 -25 8 -38 -22 -26 -89 -16 -114 18 -28 38 -26 126 4 193 l22 49 18 -70
c10 -38 23 -83 30 -100z"/>
<path d="M1830 2210 c-22 -22 -35 -79 -25 -117 3 -16 25 -68 47 -116 34 -76
40 -96 36 -137 -6 -64 -30 -100 -66 -100 -24 -1 -25 -2 -9 -11 13 -8 24 -7 42
5 36 24 48 53 48 120 0 52 -7 74 -42 144 -29 58 -41 94 -41 125 0 48 23 89 45
81 8 -4 15 -2 15 4 0 20 -31 21 -50 2z"/>
<path d="M4060 2229 c-8 -56 -13 -500 -6 -507 14 -14 78 30 92 63 19 47 18
123 -4 166 -15 29 -15 38 -5 59 7 14 13 58 13 98 0 59 -4 76 -20 92 -11 11
-24 20 -29 20 -5 0 -16 3 -25 6 -9 3 -16 5 -16 3z m60 -55 c25 -66 3 -174 -36
-174 -11 0 -14 17 -14 78 0 42 3 87 6 100 8 30 32 28 44 -4z m-6 -226 c24 -37
31 -120 12 -155 -13 -26 -34 -43 -52 -43 -2 0 -4 50 -4 110 0 90 3 110 15 110
8 0 21 -10 29 -22z"/>
<path d="M4460 2210 c-22 -22 -35 -79 -25 -117 3 -16 25 -68 47 -116 34 -76
40 -96 36 -137 -6 -64 -30 -100 -66 -100 -24 -1 -25 -2 -8 -11 26 -16 67 17
84 67 19 56 7 121 -39 211 -46 90 -52 150 -19 183 12 12 25 18 30 15 6 -4 10
-2 10 3 0 20 -31 21 -50 2z"/>
<path d="M2056 2188 c-7 -43 -76 -427 -79 -438 -1 -4 3 -10 8 -11 6 -2 14 14
19 36 4 22 10 46 12 53 2 7 21 12 48 12 49 0 52 -3 58 -74 2 -16 9 -31 17 -34
10 -3 12 3 7 24 -10 47 -46 375 -46 422 0 35 -3 42 -20 42 -14 0 -20 -9 -24
-32z m38 -150 c4 -57 10 -120 13 -140 l6 -38 -41 0 c-23 0 -43 4 -46 8 -7 11
45 272 54 272 4 0 10 -46 14 -102z"/>
<path d="M2273 2205 c-35 -25 -47 -79 -47 -230 -1 -209 11 -245 84 -245 64 0
79 21 81 120 2 84 2 84 -25 91 -15 4 -35 5 -44 1 -13 -5 -9 -8 13 -12 28 -5
30 -9 33 -52 2 -26 -2 -65 -8 -87 -9 -36 -14 -41 -40 -41 -51 0 -62 31 -68
188 -4 110 -1 149 12 195 15 50 20 58 46 64 16 3 27 9 24 14 -8 14 -37 11 -61
-6z"/>
<path d="M2682 2203 c-4 -10 -7 -119 -7 -242 0 -168 3 -225 12 -228 10 -4 11
39 6 190 -6 196 -2 250 18 215 12 -21 125 -354 131 -383 6 -36 32 -23 40 20
12 73 22 435 11 435 -6 0 -12 -80 -17 -202 -3 -111 -10 -206 -16 -212 -5 -5
-15 15 -25 50 -9 33 -41 122 -71 199 -30 77 -54 145 -54 152 0 21 -20 25 -28
6z"/>
<path d="M3012 2038 c0 -101 1 -211 4 -245 6 -62 6 -63 36 -63 40 0 83 44 98
101 7 24 12 93 11 152 -1 143 -22 184 -110 222 -18 8 -34 15 -35 15 -1 0 -3
-82 -4 -182z m78 124 c15 -16 33 -46 39 -68 14 -50 14 -207 0 -256 -13 -48
-51 -93 -71 -86 -28 11 -34 438 -6 438 5 0 22 -13 38 -28z"/>
<path d="M3351 2199 c-4 -13 -14 -51 -21 -84 -19 -95 -25 -95 -54 -1 -15 47
-31 86 -36 86 -13 0 -15 8 30 -123 38 -110 40 -121 40 -239 1 -95 3 -119 12
-104 7 13 9 61 4 149 -6 120 -4 137 20 229 14 54 24 102 20 105 -3 3 -10 -5
-15 -18z"/>
<path d="M4266 2213 c-3 -4 -6 -116 -6 -250 l0 -243 44 0 c55 0 70 18 19 22
l-38 3 -3 128 -3 129 31 -7 c23 -5 30 -3 30 9 0 11 -9 16 -30 16 l-30 0 0 86
0 87 35 -6 c41 -7 48 10 8 19 -16 3 -33 7 -40 9 -6 2 -14 1 -17 -2z"/>
<path d="M4644 2194 c-24 -35 -32 -255 -14 -356 20 -114 75 -151 124 -85 19
25 21 45 24 174 2 80 1 165 -3 189 -8 54 -39 92 -82 100 -26 5 -34 2 -49 -22z
m83 -14 c29 -26 36 -80 31 -247 -2 -112 -6 -144 -21 -166 -25 -39 -54 -35 -75
11 -14 30 -17 68 -16 216 0 163 2 180 19 192 25 19 37 18 62 -6z"/>
<path d="M2482 1968 l3 -243 48 -3 c28 -2 47 1 47 7 0 6 -13 11 -28 11 -47 0
-52 14 -52 143 l0 119 30 -7 c23 -5 30 -3 30 9 0 9 -11 16 -27 18 -28 3 -28 4
-31 87 l-3 84 35 -6 c20 -3 38 -2 41 3 7 11 -20 20 -61 20 l-34 0 2 -242z"/>
</g>
</svg>
