<?xml version="1.0" standalone="no"?>
<!DOCTYPE svg PUBLIC "-//W3C//DTD SVG 20010904//EN"
 "http://www.w3.org/TR/2001/REC-SVG-20010904/DTD/svg10.dtd">
<svg version="1.0" xmlns="http://www.w3.org/2000/svg"
 width="649.000000pt" height="384.000000pt" viewBox="0 0 649.000000 384.000000"
 preserveAspectRatio="xMidYMid meet">

<g transform="translate(0.000000,384.000000) scale(0.100000,-0.100000)"
fill="#000000" stroke="none">
<path d="M3155 3641 c-11 -5 -38 -14 -60 -21 -22 -7 -94 -39 -160 -71 -67 -31
-134 -61 -150 -65 -17 -4 -34 -10 -40 -14 -5 -4 -27 -10 -48 -14 -24 -5 -35
-11 -31 -18 4 -6 3 -8 -4 -4 -6 3 -29 -3 -51 -15 -33 -17 -44 -18 -62 -9 -19
11 -21 10 -16 -3 4 -11 -1 -18 -15 -22 -25 -9 -35 2 -41 40 -3 24 -4 22 -6
-11 -1 -30 -6 -44 -18 -49 -10 -4 -56 -20 -103 -37 -47 -16 -113 -43 -148 -59
-34 -16 -97 -41 -140 -55 -143 -49 -267 -109 -270 -130 -2 -13 41 -64 138
-164 78 -80 148 -154 155 -165 10 -16 11 -45 4 -135 -20 -259 -26 -376 -18
-395 8 -19 11 -16 13 15 2 25 35 24 45 -2 14 -37 31 -101 34 -128 1 -19 -3
-26 -21 -28 -23 -4 -46 17 -64 58 -4 8 -7 -20 -7 -62 -1 -112 3 -108 -112
-108 -59 0 -99 4 -99 10 0 6 18 10 39 10 40 0 40 0 30 29 -5 15 -9 70 -7 122
l3 94 58 -3 c31 -2 57 1 57 6 0 7 -83 67 -112 80 -5 2 -8 -8 -8 -22 0 -14 -5
-26 -11 -26 -7 0 -10 12 -7 30 4 26 1 30 -18 30 -13 0 -26 -4 -29 -10 -3 -5
-8 -88 -11 -185 l-6 -175 100 0 c66 0 103 -4 108 -12 5 -8 -7 -10 -47 -6 -51
5 -52 5 -16 -5 37 -11 46 -20 27 -32 -19 -12 -12 -97 11 -121 l20 -22 -23 -53
c-25 -59 -31 -167 -10 -204 6 -12 14 -48 17 -81 l7 -59 -46 -23 c-26 -12 -58
-22 -73 -22 -26 0 -26 0 -8 -20 25 -27 10 -38 -43 -32 -31 3 -42 8 -38 18 3 8
0 11 -10 7 -7 -3 -14 -9 -14 -14 0 -15 -30 -10 -36 6 -8 19 -24 19 -24 0 0
-10 -10 -15 -30 -15 -20 0 -30 5 -30 15 0 19 -16 19 -24 0 -3 -9 -17 -15 -33
-14 -23 0 -25 2 -9 8 25 10 10 18 -32 19 -18 0 -30 -4 -27 -9 4 -5 1 -9 -4 -9
-6 0 -11 5 -11 10 0 6 -5 10 -10 10 -6 0 -9 -5 -8 -11 2 -6 -3 -14 -9 -16 -8
-3 -13 4 -13 15 0 11 6 23 13 25 6 3 1 6 -12 6 -19 1 -22 -3 -18 -20 4 -17 3
-19 -6 -10 -20 20 -27 12 -27 -34 0 -59 -14 -58 -18 0 -2 39 0 46 20 54 18 6
8 9 -42 13 -36 3 -67 3 -70 1 -3 -3 -5 -91 -5 -196 0 -106 -4 -209 -9 -231 -8
-37 -8 -38 13 -27 18 10 21 21 21 72 0 45 5 65 19 81 11 11 17 26 15 33 -7 17
35 27 119 30 44 1 63 -1 55 -7 -8 -6 -2 -7 17 -3 17 4 82 10 145 14 l115 6 75
51 c42 29 82 59 89 68 20 24 41 20 41 -8 0 -14 -4 -28 -10 -31 -6 -4 -10 -55
-10 -121 0 -113 0 -114 -24 -114 -13 0 -39 6 -57 14 -19 8 -56 17 -84 20 -42
5 -46 4 -23 -5 26 -10 27 -12 11 -27 -9 -9 -28 -22 -42 -29 -22 -10 -12 -11
64 -8 50 1 97 5 105 6 8 2 15 -2 14 -8 -1 -7 -2 -24 -2 -38 -2 -20 -7 -25 -27
-25 -24 0 -26 -3 -29 -52 -1 -9 -4 -20 -8 -24 -15 -14 -8 -32 15 -38 12 -4 49
-9 83 -12 73 -7 77 -2 64 83 -10 69 -8 513 2 513 21 -1 37 -14 42 -34 7 -28
32 -40 127 -61 53 -12 85 -26 109 -46 18 -16 37 -29 42 -29 4 0 6 -12 4 -27
-3 -14 -2 -31 1 -37 4 -6 8 -48 8 -94 1 -66 -2 -85 -14 -92 -13 -8 -12 -9 7
-10 13 0 32 4 42 10 18 10 167 16 176 8 2 -3 6 -26 8 -52 5 -61 22 -55 18 7
-1 35 2 47 12 47 8 0 17 -8 19 -17 4 -17 5 -17 6 0 1 15 12 17 81 17 66 0 78
-2 74 -15 -4 -9 0 -15 10 -15 9 0 16 7 16 15 0 10 9 15 28 14 25 -1 25 -1 4
-7 l-23 -7 21 -17 c23 -21 26 -38 6 -38 -9 0 -17 -15 -21 -39 -6 -38 -9 -40
-58 -51 -76 -17 -101 -11 -104 24 -3 45 -10 55 -32 49 -12 -3 -18 -9 -15 -14
3 -5 3 -23 -1 -39 l-7 -30 -79 0 c-46 0 -79 4 -79 10 0 6 -9 10 -21 10 -13 0
-18 4 -13 12 5 7 3 8 -6 3 -17 -10 -32 16 -18 32 8 10 7 12 -6 7 -10 -4 -18 0
-22 10 -3 9 -10 13 -15 10 -5 -3 -9 2 -9 11 0 13 -6 15 -27 11 -16 -3 -50 -8
-76 -12 -35 -5 -45 -10 -38 -17 6 -6 11 -28 11 -49 l0 -38 -56 0 c-31 0 -53
-4 -50 -9 4 -5 154 -9 355 -8 317 1 350 0 365 -16 19 -19 46 -23 46 -7 0 6 -8
10 -17 11 -15 0 -15 2 2 9 24 11 135 1 152 -12 7 -6 11 -14 8 -18 -3 -5 0 -12
6 -16 8 -5 8 -9 -1 -14 -9 -6 -3 -13 20 -25 27 -14 34 -15 41 -3 5 7 6 20 3
28 -11 29 -9 35 15 38 19 3 21 6 10 13 -9 5 56 9 166 10 203 2 203 6 0 17
l-140 7 -5 45 c-5 45 -5 45 -49 51 -42 5 -44 5 -58 -28 -7 -19 -12 -42 -11
-51 2 -13 -5 -17 -32 -17 -35 0 -35 0 -38 47 -2 28 -8 48 -15 48 -8 0 -8 3 1
12 7 7 12 22 12 35 0 19 5 23 30 23 l30 0 -20 52 c-11 28 -18 54 -16 56 2 2 7
-6 11 -17 5 -17 12 -19 38 -14 18 3 36 10 42 14 19 18 24 7 20 -48 -2 -37 1
-60 8 -65 15 -9 69 -10 122 -1 31 5 35 8 20 14 -17 6 -15 8 10 9 l30 2 -27 10
c-33 12 -35 27 -7 51 35 31 54 18 54 -36 l0 -47 64 0 c35 0 61 3 58 7 -4 3
-27 6 -51 5 -41 -2 -44 0 -49 28 -11 54 -3 60 81 60 41 0 72 3 68 7 -4 4 -15
8 -24 8 -9 1 -39 3 -67 4 l-50 3 39 8 c21 4 48 5 60 2 21 -5 21 -5 -1 17 -22
21 -49 29 -38 11 4 -6 -12 -10 -42 -10 -47 0 -47 0 -24 17 28 19 107 24 104 6
-3 -12 55 -43 82 -43 11 0 15 -5 11 -15 -3 -9 0 -15 10 -15 10 0 14 6 10 15
-4 11 2 15 25 15 31 0 31 0 15 -25 l-16 -25 37 -1 38 -1 -33 -9 c-18 -6 -42
-19 -52 -29 -25 -25 -75 -26 -90 -2 -11 16 -11 16 -6 -1 7 -22 -22 -57 -49
-58 -11 0 -14 -3 -8 -6 7 -2 33 3 58 13 39 14 66 16 177 11 90 -5 134 -11 140
-19 6 -10 10 -10 18 2 15 23 12 42 -12 80 -27 44 -29 54 -29 170 0 125 11 251
21 245 8 -5 23 130 23 206 0 36 0 36 41 35 l41 -1 0 -198 c0 -209 -4 -225 -47
-211 -10 3 -18 1 -18 -4 0 -5 8 -12 18 -14 16 -5 18 -15 17 -79 -1 -41 -2
-109 -3 -151 -2 -64 -5 -77 -19 -81 -11 -3 -8 -5 9 -6 17 -1 37 9 52 24 23 23
52 30 114 28 9 -1 12 23 12 87 0 57 4 90 11 92 7 2 14 43 18 101 4 71 10 101
21 107 10 7 11 10 3 10 -16 0 -18 116 -3 125 13 8 13 185 1 185 -5 0 -11 -6
-14 -12 -4 -10 -7 -10 -18 0 -7 6 -9 12 -4 12 16 0 15 52 0 85 -8 17 -17 47
-20 68 -3 20 -10 37 -15 37 -15 0 -12 78 3 82 9 4 12 50 12 189 0 101 -3 208
-5 238 -3 36 -1 55 7 58 6 2 13 -4 16 -14 4 -16 6 -15 12 5 10 31 22 27 35
-13 6 -19 17 -35 23 -35 16 1 57 89 57 122 0 17 7 31 20 38 11 6 20 20 20 30
0 11 7 20 15 20 8 0 15 5 15 10 0 6 -6 10 -12 10 -9 0 -9 3 -2 8 26 18 21 74
-5 58 -6 -4 -9 -12 -6 -17 3 -5 -1 -6 -9 -3 -14 5 -14 9 -2 26 8 11 12 27 9
34 -3 8 -1 14 5 14 5 0 12 9 15 20 3 13 14 20 29 20 24 0 24 -3 26 -76 0 -68
-1 -76 -21 -84 l-22 -9 23 0 c21 -1 22 -4 22 -95 0 -83 -2 -94 -17 -92 -13 1
-19 -8 -21 -31 -3 -25 1 -33 13 -33 13 0 16 6 11 25 -4 14 -2 25 3 25 15 0 11
-138 -5 -151 -8 -6 -14 -16 -14 -21 0 -6 6 -6 14 1 12 10 15 -14 16 -171 1
-101 2 -192 3 -203 2 -47 -4 -85 -13 -85 -5 0 -7 7 -4 15 4 8 1 15 -5 15 -14
0 -15 -67 -1 -75 7 -4 7 -12 0 -25 -5 -10 -10 -49 -11 -87 -1 -79 -11 -124
-23 -105 -4 6 -12 12 -17 12 -6 0 -7 -4 -4 -10 4 -6 -9 -10 -32 -11 -37 -1
-37 -2 -8 -8 17 -4 40 -6 53 -4 12 2 22 -1 22 -7 0 -5 -3 -9 -7 -9 -5 1 -15 1
-23 0 -13 -1 -13 -2 0 -11 13 -9 13 -11 0 -20 -12 -8 -10 -10 9 -10 23 0 24
-2 17 -57 -3 -32 -10 -80 -15 -108 -6 -27 -10 -88 -10 -134 -1 -79 -11 -99
-24 -46 -4 19 -5 19 -6 -1 -2 -35 -49 -27 -57 9 -7 35 -20 35 -20 -1 1 -20 -4
-27 -16 -26 -10 1 -18 -2 -18 -7 0 -5 -7 -9 -15 -9 -10 0 -15 -10 -15 -33 0
-42 5 -47 40 -37 18 5 32 4 39 -3 8 -8 11 -7 11 3 0 11 3 11 12 2 7 -7 31 -12
54 -12 l41 0 -2 68 c-1 37 2 75 7 85 8 16 11 16 30 3 11 -8 27 -12 34 -9 8 3
14 -1 14 -11 0 -9 6 -13 15 -10 9 4 44 -16 86 -47 73 -54 116 -71 99 -40 -4 9
-9 57 -11 106 l-3 90 29 -2 c46 -3 129 -49 194 -108 74 -66 101 -81 164 -90
56 -9 177 -83 198 -121 7 -13 17 -24 22 -24 17 0 -43 -42 -71 -49 -16 -5 -28
-15 -30 -28 -2 -15 -9 -19 -28 -15 -13 2 -24 8 -24 13 0 5 -11 9 -25 9 -14 0
-25 -5 -25 -11 0 -6 6 -9 14 -6 8 3 20 -1 26 -9 7 -8 23 -14 36 -14 22 0 29
-10 25 -34 -4 -18 11 -66 20 -66 5 0 9 23 9 50 0 43 3 50 20 50 22 0 28 -26 8
-32 -8 -3 -5 -12 9 -27 20 -21 21 -21 26 -2 2 10 0 24 -5 29 -6 6 -7 19 -4 30
6 19 9 19 36 5 32 -15 40 -33 16 -33 -11 0 -10 -9 7 -42 l21 -43 7 40 c4 22 4
45 2 52 -3 7 0 13 6 13 6 0 11 -9 11 -20 0 -11 6 -20 13 -20 9 0 8 -3 -2 -9
-10 -6 -10 -10 -1 -16 8 -5 7 -12 -6 -26 -21 -23 -11 -38 12 -19 10 9 18 10
22 3 4 -5 14 -13 22 -16 14 -5 -52 -9 -167 -9 -41 0 -50 -3 -46 -15 3 -8 12
-12 19 -9 10 4 14 -3 14 -20 0 -23 -3 -25 -25 -20 -15 4 -25 2 -25 -4 0 -6 -9
-10 -19 -8 -10 2 -27 -4 -37 -13 -11 -10 -28 -19 -39 -22 -11 -2 24 -5 77 -6
61 -1 99 3 104 10 5 8 8 8 14 0 4 -8 50 -11 141 -10 224 4 251 3 344 -4 50 -4
90 -7 90 -8 0 -3 115 1 185 8 77 7 85 10 82 28 -4 23 -22 45 -22 27 0 -19 -24
-14 -38 8 -7 12 -8 20 -2 20 12 0 9 22 -5 32 -5 4 -67 8 -137 8 -70 0 -129 3
-131 8 -2 4 2 18 9 32 8 14 14 19 14 13 0 -10 24 -13 88 -12 57 0 78 3 62 8
-14 5 -46 21 -70 36 -54 34 -127 67 -237 107 -46 16 -83 35 -83 42 0 7 -24 22
-52 35 -50 21 -58 30 -133 147 -44 69 -93 136 -108 150 -29 24 -67 32 -67 14
0 -5 -25 -26 -56 -47 -44 -29 -59 -35 -72 -26 -9 6 -16 20 -14 31 3 20 -21 63
-68 124 -14 18 -17 28 -9 28 8 0 7 5 -4 13 -10 7 -23 43 -33 87 -8 41 -18 78
-22 82 -16 15 -122 39 -200 45 -45 3 -85 10 -88 14 -2 5 -5 30 -6 56 0 41 3
50 27 68 75 54 75 52 4 48 -45 -3 -83 2 -127 15 l-62 20 0 -24 c0 -13 -4 -24
-10 -24 -10 0 -3 101 10 150 6 24 9 25 95 25 l88 0 9 30 c5 17 12 90 15 164 5
123 4 135 -12 148 -48 35 -214 -6 -207 -52 2 -19 2 -19 -9 -2 -11 19 -9 84 9
242 6 50 16 157 22 238 l13 148 43 29 c23 17 47 30 53 30 15 0 124 54 158 78
15 11 44 26 64 35 58 24 119 66 119 82 0 20 -72 54 -500 236 -195 83 -375 160
-400 171 -24 11 -87 38 -140 60 -306 129 -364 150 -412 154 -27 1 -61 10 -74
19 -13 8 -29 15 -36 15 -10 0 -10 -3 1 -9 8 -6 15 -29 16 -61 1 -29 6 -55 11
-59 18 -12 15 -43 -6 -61 -27 -24 -133 -47 -138 -31 -2 6 -14 11 -26 11 -19 0
-23 -6 -24 -35 -1 -20 -6 -43 -11 -53 -7 -12 -8 12 -5 73 6 85 8 93 42 134 20
24 43 46 52 48 9 2 22 14 29 25 11 17 10 22 -1 29 -16 11 -36 10 -63 0z m-9
-30 c-3 -5 -16 -11 -28 -14 -13 -2 -32 -8 -43 -12 -11 -4 -6 2 10 13 30 21 71
29 61 13z m584 -155 c0 -3 -4 -8 -10 -11 -5 -3 -10 -1 -10 4 0 6 5 11 10 11 6
0 10 -2 10 -4z m25 -36 c3 -5 2 -10 -4 -10 -5 0 -13 5 -16 10 -3 6 -2 10 4 10
5 0 13 -4 16 -10z m55 6 c0 -3 -4 -8 -10 -11 -5 -3 -10 -1 -10 4 0 6 5 11 10
11 6 0 10 -2 10 -4z m-486 -32 c9 -23 6 -24 -50 -30 -84 -9 -105 -6 -127 17
l-21 22 25 -7 c46 -13 73 -14 103 0 42 18 63 17 70 -2z m556 2 c0 -3 -4 -8
-10 -11 -5 -3 -10 -1 -10 4 0 6 5 11 10 11 6 0 10 -2 10 -4z m35 -24 c-3 -3
-11 0 -18 7 -9 10 -8 11 6 5 10 -3 15 -9 12 -12z m-755 -22 c0 -15 -5 -12 -26
11 -19 22 -19 22 4 10 12 -6 22 -16 22 -21z m780 5 c-7 -8 -17 -15 -22 -15
-11 0 14 29 26 30 5 0 3 -7 -4 -15z m-1479 -22 c-12 -23 -103 -59 -95 -38 4
10 -7 9 -46 -6 -29 -11 -54 -18 -57 -15 -4 3 67 33 167 69 31 11 41 8 31 -10z
m1529 13 c0 -3 -4 -8 -10 -11 -5 -3 -10 -1 -10 4 0 6 5 11 10 11 6 0 10 -2 10
-4z m111 -46 c14 -4 34 -12 45 -18 16 -10 61 -30 179 -82 11 -5 65 -27 120
-50 162 -67 237 -102 231 -107 -2 -2 -20 4 -41 13 -27 11 -40 12 -45 4 -5 -7
-11 -6 -20 5 -7 9 -20 13 -28 10 -18 -7 -54 24 -45 38 4 6 0 8 -10 4 -8 -3
-17 0 -20 6 -5 14 -94 40 -108 31 -5 -3 -8 0 -7 7 2 7 -10 17 -27 23 -16 6
-33 15 -36 20 -4 5 -16 6 -28 3 -12 -3 -31 3 -46 15 -14 10 -29 16 -35 13 -5
-3 -20 1 -32 9 -12 9 -31 16 -41 16 -11 0 -15 4 -11 12 4 7 3 8 -4 4 -12 -7
-91 42 -92 57 0 4 17 0 38 -9 20 -9 49 -19 63 -24z m-1784 -36 c-3 -3 -12 -4
-19 -1 -8 3 -5 6 6 6 11 1 17 -2 13 -5z m1403 -104 c0 -11 -4 -20 -10 -20 -5
0 -10 6 -10 14 0 8 -6 17 -12 19 -7 3 -3 6 10 6 16 1 22 -5 22 -19z m76 9 c3
-6 1 -16 -5 -22 -8 -8 -11 -6 -11 7 0 15 -3 16 -15 6 -12 -10 -15 -10 -15 4 0
18 35 22 46 5z m78 -76 c0 -21 6 -42 13 -48 15 -12 28 -65 17 -65 -12 0 -54
92 -54 117 0 10 -7 28 -15 39 -19 29 -6 39 18 15 12 -12 20 -34 21 -58z m-74
11 c0 -8 -7 -14 -15 -14 -15 0 -21 21 -9 33 10 9 24 -2 24 -19z m-72 -2 c2 -7
-3 -12 -10 -12 -8 0 -15 7 -15 15 0 18 19 15 25 -3z m-659 -63 l-2 -71 79 -3
c194 -8 430 -4 577 11 47 5 67 4 67 -5 0 -7 29 -11 89 -11 50 0 93 -4 96 -10
3 -5 30 -10 60 -10 60 0 85 -7 85 -24 0 -7 -36 -11 -117 -12 -65 0 -148 -3
-185 -7 -43 -4 -68 -3 -68 3 0 6 4 10 9 10 5 0 9 11 9 25 0 29 -10 32 -28 10
-10 -12 -15 -13 -21 -4 -9 14 -74 4 -91 -15 -10 -10 -16 -9 -29 8 -15 17 -19
18 -23 6 -5 -12 -32 -15 -154 -15 -81 0 -153 4 -160 9 -8 4 -26 3 -42 -4 -16
-7 -38 -9 -47 -5 -21 9 -137 8 -165 -1 -21 -6 -21 -6 -7 36 14 37 3 50 -44 50
-24 0 -28 4 -25 23 2 15 19 30 57 50 81 40 83 39 80 -44z m718 -1 c-3 -7 -5
-2 -5 12 0 14 2 19 5 13 2 -7 2 -19 0 -25z m-246 -6 c24 -16 50 -27 57 -24 6
2 12 -3 12 -11 0 -12 -15 -15 -69 -16 l-70 -1 1 40 c0 48 9 49 69 12z m-650
-15 c-8 -8 -11 -7 -11 4 0 20 13 34 18 19 3 -7 -1 -17 -7 -23z m-297 -35 c-22
-5 -31 7 -14 18 9 6 17 5 22 -3 4 -7 1 -13 -8 -15z m61 16 c14 -6 25 -14 25
-18 0 -13 -49 2 -54 16 -7 17 -4 17 29 2z m102 6 c-3 -3 -12 -4 -19 -1 -8 3
-5 6 6 6 11 1 17 -2 13 -5z m160 -13 c39 -3 74 -9 78 -12 3 -4 -7 -14 -22 -24
-20 -13 -51 -19 -105 -21 -43 -2 -86 -7 -95 -12 -23 -12 -60 -9 -74 5 -9 9 -4
18 16 37 15 14 34 26 41 26 8 0 14 5 14 11 0 8 12 9 38 4 20 -3 69 -10 109
-14z m-373 -17 c36 -14 11 -20 -79 -20 -65 1 -95 5 -95 13 0 6 6 14 13 17 14
7 138 -1 161 -10z m-199 -14 c-3 -5 -15 -10 -26 -10 -11 0 -17 5 -14 10 3 6
15 10 26 10 11 0 17 -4 14 -10z m-318 -22 c-3 -8 -6 -5 -6 6 -1 11 2 17 5 13
3 -3 4 -12 1 -19z m2299 -24 c78 -2 94 -7 94 -30 0 -15 -46 -16 -192 -5 -5 1
-8 13 -8 27 0 21 3 25 18 18 9 -4 49 -9 88 -10z m-1937 -28 c-2 -2 -20 -11
-39 -20 l-35 -17 24 21 c13 11 30 20 39 20 8 0 13 -2 11 -4z m164 -13 c4 -3 4
-10 -2 -16 -5 -7 -13 -27 -18 -46 -6 -24 -18 -39 -41 -50 -28 -14 -31 -21 -30
-56 0 -23 3 -30 5 -17 2 12 11 22 18 22 8 0 19 8 24 18 8 12 10 13 11 3 0 -8
10 -25 22 -38 19 -20 22 -35 22 -108 0 -95 -11 -118 -44 -97 -11 7 -20 9 -20
4 0 -4 8 -12 18 -19 16 -9 19 -25 20 -88 2 -82 12 -104 76 -172 41 -45 58 -43
50 5 -11 74 -14 142 -5 142 10 0 21 -49 21 -92 0 -16 6 -31 15 -34 8 -4 15
-18 15 -34 0 -15 9 -35 20 -45 25 -22 36 -14 20 14 -14 27 -5 41 27 41 19 0
24 -4 19 -16 -13 -35 -18 -64 -10 -64 20 1 44 29 50 58 5 25 2 33 -20 47 -24
16 -28 16 -52 0 -14 -9 -28 -14 -31 -11 -4 3 -7 70 -8 148 -1 91 -6 154 -15
173 -19 46 -28 170 -13 184 10 9 13 5 13 -22 0 -19 6 -40 14 -46 8 -7 17 -28
21 -49 4 -20 10 -41 14 -47 4 -5 14 -31 21 -57 7 -26 16 -45 21 -42 5 3 9 -7
10 -23 2 -67 9 -107 19 -117 7 -7 10 1 10 27 0 48 -19 137 -30 137 -5 0 -13
23 -19 52 -7 28 -16 56 -20 62 -10 12 -33 158 -26 164 12 12 34 -11 40 -40 4
-18 10 -37 14 -43 4 -5 13 -30 20 -55 7 -25 16 -52 21 -60 4 -9 11 -36 15 -60
4 -25 16 -61 26 -80 17 -33 18 -34 19 -9 0 14 -3 29 -7 33 -4 3 -8 12 -9 19
-1 7 -10 46 -19 87 -10 41 -20 105 -22 143 -5 64 -4 67 17 67 13 0 24 -8 27
-20 6 -21 18 -26 27 -11 7 11 48 2 58 -13 13 -19 9 -36 -16 -60 -19 -17 -24
-31 -23 -59 1 -23 6 -35 14 -33 6 3 13 -4 16 -15 4 -16 2 -19 -14 -14 -13 4
-19 2 -19 -9 0 -9 6 -13 14 -10 20 8 22 -14 22 -188 -1 -146 5 -185 21 -140 4
9 15 28 25 41 10 13 18 34 18 47 0 13 9 28 19 34 18 9 19 8 11 -19 -7 -26 -5
-31 22 -42 16 -6 41 -27 54 -45 14 -18 38 -36 55 -39 25 -6 36 -1 68 28 52 47
96 57 125 27 20 -22 20 -22 1 -15 -11 4 -28 7 -38 7 -20 -1 -57 -38 -57 -56 0
-22 30 -54 55 -60 31 -8 75 19 75 45 0 11 5 19 10 19 6 0 10 -4 10 -10 0 -5 5
-10 10 -10 6 0 8 10 5 23 -3 12 -10 74 -15 137 -5 63 -11 135 -14 160 -13 122
-15 246 -5 260 8 11 12 12 16 3 2 -7 11 -13 19 -13 10 0 14 -14 14 -51 0 -31
4 -48 10 -44 6 3 10 20 10 37 0 17 3 28 6 25 12 -12 8 -171 -4 -175 -8 -2 -12
13 -12 50 0 38 -3 49 -10 38 -5 -8 -10 -35 -10 -60 0 -25 5 -52 10 -60 8 -13
10 -12 10 3 0 11 6 17 13 14 7 -2 11 -16 9 -35 -2 -19 1 -32 8 -32 6 0 11 10
10 23 -1 12 -1 27 1 32 1 6 3 37 4 70 1 33 3 84 4 113 1 39 5 52 16 52 8 0 15
6 15 13 0 6 12 -1 25 -16 23 -26 25 -35 26 -145 0 -122 11 -181 23 -132 3 14
7 43 9 65 l4 40 1 -46 c1 -25 9 -59 17 -75 8 -17 15 -55 16 -87 1 -31 6 -57
11 -57 4 0 8 61 8 135 0 83 4 135 10 135 6 0 10 -9 10 -20 0 -10 7 -23 15 -28
12 -6 18 -39 25 -138 5 -71 10 -140 10 -153 0 -13 3 -22 6 -18 4 3 6 24 6 47
-1 33 2 40 19 40 19 0 20 5 15 123 -3 67 -7 136 -11 154 -3 17 -2 34 4 37 5 3
7 24 4 46 -3 22 -2 40 4 40 9 0 16 -35 16 -88 0 -19 4 -28 8 -20 16 25 20 -3
24 -168 2 -93 5 -178 7 -188 2 -10 -3 -21 -11 -24 -8 -3 -11 0 -7 7 4 6 3 11
-3 11 -5 0 -13 -5 -17 -12 -5 -8 -10 -6 -15 8 -7 20 -8 20 -24 -31 -7 -23 -46
-18 -74 9 -18 17 -43 26 -82 31 -51 6 -58 5 -85 -20 -22 -20 -24 -24 -7 -16
12 6 25 16 28 21 3 6 11 10 16 10 6 0 3 -7 -5 -16 -19 -19 -20 -63 -2 -86 21
-28 86 -21 86 9 0 10 7 14 20 10 11 -3 20 -1 20 4 0 5 -7 9 -16 9 -11 0 -14 5
-10 16 4 9 1 24 -6 32 -7 9 5 4 27 -11 40 -27 115 -38 115 -16 0 5 5 7 10 4 6
-3 10 -17 10 -30 0 -16 9 -27 30 -37 23 -10 30 -19 30 -40 0 -18 -5 -28 -15
-28 -9 0 -12 6 -9 15 8 19 -1 19 -29 0 -19 -12 -61 -14 -247 -10 -124 2 -265
4 -315 3 -120 -2 -163 0 -200 10 -16 5 -131 8 -255 8 -174 -1 -224 -4 -223
-13 5 -23 -13 -14 -36 18 -12 16 -25 45 -28 63 -4 27 -1 36 18 50 19 13 20 16
6 16 -9 0 -16 3 -15 8 1 4 -6 24 -15 45 -14 32 -20 37 -38 32 -14 -5 -25 -2
-30 6 -5 9 -9 -17 -10 -66 -2 -245 7 -326 42 -363 16 -18 19 -35 18 -104 -1
-53 -4 -72 -8 -53 -13 60 -18 6 -17 -185 1 -194 1 -195 24 -198 12 -2 22 -8
22 -14 0 -6 -7 -7 -17 -3 -28 12 -58 11 -58 -2 0 -19 -10 -23 -38 -15 -20 5
-24 10 -17 22 7 11 12 12 18 3 5 -8 13 -6 28 6 22 17 22 17 -10 17 -17 -1 -43
3 -58 7 -23 6 -28 4 -28 -11 0 -28 -10 -33 -34 -17 -11 8 -28 15 -37 15 -10 0
-30 6 -46 14 -15 8 -45 21 -65 30 -37 15 -38 15 -38 -5 0 -11 4 -18 9 -14 12
7 24 -12 16 -25 -9 -15 -37 24 -63 87 -26 61 -26 63 -7 63 8 0 15 5 15 10 0 6
-6 10 -14 10 -10 0 -14 18 -15 70 -1 39 2 70 7 70 4 0 8 -12 7 -27 0 -18 5
-28 15 -28 13 0 42 -67 54 -122 3 -18 16 -29 16 -14 0 7 5 9 10 6 6 -3 10 -17
10 -30 0 -29 10 -55 21 -55 4 0 7 35 4 78 -2 42 -1 121 2 175 l6 98 34 -33
c19 -18 49 -57 65 -86 17 -29 33 -51 35 -48 12 12 -21 75 -64 121 -25 28 -54
68 -64 90 -20 42 -26 149 -10 160 5 3 22 -21 36 -52 15 -32 48 -89 73 -128 36
-55 47 -81 50 -122 2 -29 1 -60 -3 -70 -9 -22 -6 -138 4 -166 5 -13 11 38 15
126 l7 147 -31 55 c-17 30 -36 57 -41 60 -31 20 -86 174 -71 201 7 13 13 10
33 -18 45 -59 82 -130 95 -182 l13 -51 -4 59 c-2 39 -10 66 -23 80 -10 11 -32
47 -47 79 -16 33 -40 67 -53 78 -13 10 -21 23 -18 28 4 5 2 12 -3 16 -6 3 -8
35 -6 72 3 37 1 70 -4 73 -4 3 -11 19 -15 35 -4 19 -3 25 2 17 8 -11 10 -11
15 1 3 9 0 21 -8 27 -13 11 -31 117 -26 155 4 29 19 41 27 22 6 -17 50 -23 69
-9 30 21 71 118 81 189 3 26 14 68 25 92 10 24 19 51 19 61 0 10 7 23 15 30 8
7 15 20 15 29 0 35 42 47 83 24z m190 0 c-7 -2 -21 -2 -30 0 -10 3 -4 5 12 5
17 0 24 -2 18 -5z m-313 -17 c0 -11 -19 -15 -25 -6 -3 5 1 10 9 10 9 0 16 -2
16 -4z m345 -6 c-3 -5 -12 -10 -18 -10 -7 0 -6 4 3 10 19 12 23 12 15 0z
m-595 -10 c0 -5 -7 -10 -15 -10 -8 0 -15 5 -15 10 0 6 7 10 15 10 8 0 15 -4
15 -10z m640 -20 c0 -5 -9 -10 -21 -10 -11 0 -17 5 -14 10 3 6 13 10 21 10 8
0 14 -4 14 -10z m1160 -14 c-1 -6 -14 -27 -30 -46 l-30 -34 0 33 c0 46 15 70
40 64 11 -3 20 -10 20 -17z m-1838 -18 c-9 -9 -12 -7 -12 12 0 19 3 21 12 12
9 -9 9 -15 0 -24z m598 22 c0 -5 -4 -10 -9 -10 -6 0 -13 5 -16 10 -3 6 1 10 9
10 9 0 16 -4 16 -10z m1293 -5 c1 -5 -6 -11 -15 -13 -11 -2 -18 3 -18 13 0 17
30 18 33 0z m-1220 -12 c-7 -2 -19 -2 -25 0 -7 3 -2 5 12 5 14 0 19 -2 13 -5z
m1207 -44 c0 -13 -15 -18 -38 -12 -34 9 -27 30 8 25 17 -2 30 -8 30 -13z
m-1850 7 c0 -3 -4 -8 -10 -11 -5 -3 -10 -1 -10 4 0 6 5 11 10 11 6 0 10 -2 10
-4z m-33 -56 c-6 -16 -13 -27 -15 -25 -8 7 10 65 18 60 4 -3 3 -18 -3 -35z
m938 29 c11 -17 -4 -77 -22 -83 -21 -8 -22 -7 -29 47 -7 45 -6 47 19 47 14 0
29 -5 32 -11z m210 -11 c3 -13 7 -36 8 -53 l2 -30 -68 2 c-88 2 -127 19 -127
53 0 42 17 50 102 50 72 0 78 -2 83 -22z m92 0 c9 -20 9 -33 4 -80 -3 -21 -31
9 -37 38 -11 57 12 87 33 42z m870 16 c-3 -3 -12 -4 -19 -1 -8 3 -5 6 6 6 11
1 17 -2 13 -5z m81 -19 c-3 -3 -9 2 -12 12 -6 14 -5 15 5 6 7 -7 10 -15 7 -18z
m-818 -5 c0 -5 -4 -10 -10 -10 -5 0 -10 5 -10 10 0 6 5 10 10 10 6 0 10 -4 10
-10z m277 -22 c-3 -8 -6 -5 -6 6 -1 11 2 17 5 13 3 -3 4 -12 1 -19z m121 -34
c-2 -19 0 -34 4 -34 4 0 8 10 9 23 0 13 3 16 6 8 3 -8 16 -30 30 -49 20 -30
23 -47 22 -104 -1 -55 -5 -68 -18 -69 -13 -1 -13 -2 2 -6 13 -3 17 -15 17 -49
0 -25 5 -54 10 -64 7 -13 7 -21 0 -25 -16 -10 -12 -28 5 -21 12 4 15 -3 15
-37 0 -76 -13 -177 -21 -171 -5 3 -9 -15 -9 -40 0 -25 -4 -46 -9 -46 -5 0 -9
51 -10 114 -2 108 -1 114 20 119 40 11 10 24 -41 17 -27 -4 -50 -4 -51 -1 -8
50 -7 171 1 171 5 0 10 -11 10 -25 0 -14 5 -25 10 -25 6 0 8 10 4 24 -3 13 -2
26 3 29 6 4 1 53 -10 117 -13 75 -17 127 -12 158 8 52 19 40 13 -14z m-1736 5
c-5 -13 -10 -87 -11 -163 -1 -77 -4 -142 -6 -145 -3 -2 -5 28 -5 67 0 78 -16
99 -23 30 -2 -24 -4 -2 -4 47 0 50 2 71 4 48 6 -68 18 -50 20 31 1 41 7 84 13
96 15 28 23 20 12 -11z m1618 -31 c0 -20 -18 -5 -23 19 -5 26 -4 26 9 8 8 -10
14 -22 14 -27z m-73 -50 c-3 -7 -5 -2 -5 12 0 14 2 19 5 13 2 -7 2 -19 0 -25z
m413 -8 c0 -5 -5 -10 -11 -10 -5 0 -7 5 -4 10 3 6 8 10 11 10 2 0 4 -4 4 -10z
m-984 -47 c-11 -11 -19 6 -11 24 8 17 8 17 12 0 3 -10 2 -21 -1 -24z m-76 17
c0 -5 -5 -10 -11 -10 -5 0 -7 5 -4 10 3 6 8 10 11 10 2 0 4 -4 4 -10z m88 -73
c18 -50 16 -137 -3 -137 -8 0 -16 8 -17 18 -4 47 -2 152 2 152 4 0 11 -15 18
-33z m-78 8 c0 -8 -4 -15 -10 -15 -5 0 -10 7 -10 15 0 8 5 15 10 15 6 0 10 -7
10 -15z m207 -7 c-3 -8 -6 -5 -6 6 -1 11 2 17 5 13 3 -3 4 -12 1 -19z m13 -58
c0 -13 5 -17 15 -14 10 4 15 0 15 -15 0 -12 -7 -24 -15 -27 -8 -4 -12 -10 -9
-15 3 -5 -17 -9 -44 -9 -53 0 -62 8 -62 57 0 16 7 27 19 30 22 6 34 29 24 46
-4 6 8 1 25 -12 18 -12 32 -31 32 -41z m70 9 c0 -11 5 -17 10 -14 6 4 10 -9
10 -33 0 -22 3 -60 6 -86 5 -31 3 -46 -5 -46 -6 0 -11 7 -11 15 0 8 -6 15 -14
15 -10 0 -14 22 -15 91 -1 61 1 89 8 84 6 -3 11 -15 11 -26z m-294 -18 c2 -43
-20 -35 -24 8 -3 24 0 32 10 29 7 -3 13 -19 14 -37z m-949 -93 c-2 -13 -4 -3
-4 22 0 25 2 35 4 23 2 -13 2 -33 0 -45z m-30 -25 c-3 -10 -5 -4 -5 12 0 17 2
24 5 18 2 -7 2 -21 0 -30z m1082 21 c2 -2 -16 -4 -42 -4 -25 0 -49 4 -52 10
-6 9 83 3 94 -6z m-1182 -50 c-3 -3 -12 -4 -19 -1 -8 3 -5 6 6 6 11 1 17 -2
13 -5z m1238 -34 c-3 -5 -11 -10 -16 -10 -6 0 -7 5 -4 10 3 6 11 10 16 10 6 0
7 -4 4 -10z m135 -45 c0 -8 -7 -15 -15 -15 -16 0 -20 12 -8 23 11 12 23 8 23
-8z m283 -15 c-7 -27 -26 -41 -42 -31 -10 7 -8 11 10 17 l24 8 -25 6 -25 7 25
10 c31 13 40 9 33 -17z m261 -2 c-3 -13 -11 -25 -16 -27 -6 -2 -4 -7 3 -12 11
-7 10 -9 -3 -9 -21 0 -25 39 -6 58 19 19 30 14 22 -10z m-554 -18 c0 -5 -4
-10 -10 -10 -5 0 -10 5 -10 10 0 6 5 10 10 10 6 0 10 -4 10 -10z m1150 -52 c0
-4 -9 -13 -20 -20 -25 -16 -26 -28 -1 -28 16 0 18 -6 13 -46 -3 -28 -13 -55
-27 -70 -27 -29 -40 -31 -25 -5 6 13 7 22 0 26 -5 3 -7 12 -3 20 3 9 -1 15
-11 15 -12 0 -16 10 -16 35 0 22 -5 35 -13 35 -7 0 -13 10 -13 23 0 20 5 22
58 22 32 0 58 -3 58 -7z m-2397 -48 c4 0 5 5 2 10 -3 6 -1 10 5 10 7 0 10 -6
7 -14 -3 -8 2 -21 12 -30 16 -15 17 -21 5 -65 -11 -43 -81 -170 -94 -171 -3 0
-5 29 -5 65 -1 44 3 65 11 65 19 0 34 58 27 108 -5 39 -3 45 8 35 7 -7 17 -13
22 -13z m1748 -37 c13 -16 12 -17 -3 -4 -17 13 -22 21 -14 21 2 0 10 -8 17
-17z m-1182 -7 c6 -4 28 -6 50 -4 22 1 44 -1 47 -5 4 -4 1 -7 -8 -7 -8 0 -23
-10 -34 -21 -10 -12 -29 -25 -42 -30 -20 -8 -29 -3 -56 26 -40 42 -53 44 -66
10 -11 -29 -22 -33 -18 -7 2 11 -3 17 -14 16 -11 -1 -18 5 -18 16 0 16 8 18
74 15 41 -1 79 -6 85 -9z m323 -12 l68 -6 -33 -26 c-17 -15 -37 -33 -43 -41
-13 -17 -42 -8 -51 16 -10 26 -29 43 -48 43 -19 0 -45 -23 -45 -39 0 -11 -19
-15 -50 -12 -10 1 -11 -1 -4 -6 6 -4 17 -18 23 -31 12 -22 11 -23 -21 -20 -31
3 -33 5 -30 38 7 67 57 101 137 93 17 -1 60 -5 97 -9z m-790 -26 c5 -29 -17
-111 -23 -84 -6 29 2 106 11 106 4 0 10 -10 12 -22z m963 12 c28 2 41 2 120
-7 l70 -8 -48 -14 c-26 -8 -52 -21 -57 -30 -7 -13 -10 -12 -19 12 -12 32 -36
38 -26 6 12 -36 -3 -89 -25 -89 -23 0 -23 3 -11 47 12 43 -2 54 -44 35 -19 -9
-32 -19 -29 -24 3 -4 -3 -8 -13 -8 -14 -1 -12 -6 12 -25 l30 -25 -39 0 c-36 0
-38 1 -32 26 4 15 10 40 13 58 7 38 31 59 58 51 11 -4 29 -6 40 -5z m-559 -50
c11 -41 5 -50 -33 -50 -14 0 -14 3 2 20 12 13 15 27 11 45 -4 14 -3 25 2 25 4
0 13 -18 18 -40z m839 21 c58 -22 71 -54 35 -86 -11 -10 -20 -21 -20 -24 0 -3
38 -7 85 -8 77 -1 101 6 76 22 -16 9 -3 69 19 87 19 15 19 17 3 21 -11 3 -8 5
10 6 31 1 140 -66 134 -83 -2 -6 -20 -22 -41 -36 -38 -25 -35 -41 4 -20 13 7
37 9 61 5 45 -8 50 -26 21 -85 l-17 -35 -94 0 c-104 0 -138 14 -39 16 l63 2
-55 7 c-30 4 -63 10 -72 14 -15 7 -18 3 -18 -18 0 -25 -2 -26 -57 -25 -32 0
-80 4 -108 9 l-50 7 70 3 c57 3 62 4 25 7 -25 3 -49 8 -54 14 -6 5 -18 9 -28
9 -10 0 -18 5 -18 11 0 7 -9 9 -22 5 -48 -14 -60 -15 -170 -7 -62 5 -135 6
-163 2 l-50 -6 44 -23 c29 -15 57 -22 82 -21 21 2 41 0 45 -4 4 -4 20 -7 35
-7 28 0 106 -57 94 -69 -3 -3 -10 1 -15 9 -7 10 -10 11 -10 3 0 -7 -7 -13 -16
-13 -10 0 -14 5 -10 15 4 10 -4 8 -25 -7 -29 -22 -31 -22 -43 -5 -16 21 -26
22 -26 2 0 -9 -9 -15 -24 -15 -31 0 -40 14 -20 30 12 11 12 15 2 21 -7 5 -17
9 -23 9 -5 0 -3 -5 5 -10 8 -5 12 -10 8 -10 -4 0 -22 9 -40 21 -18 12 -25 18
-15 15 11 -4 16 -2 12 5 -4 6 -25 9 -48 7 -24 -1 -42 2 -44 9 -3 7 -10 10 -17
7 -9 -3 -11 4 -8 24 4 27 1 30 -35 35 -21 4 -83 7 -138 8 -105 1 -168 16 -173
41 -5 24 37 27 228 16 273 -15 482 -23 515 -20 29 3 31 5 27 40 l-5 36 43 -44
42 -44 19 23 c25 31 26 76 2 66 -36 -14 -86 -19 -79 -7 3 6 1 14 -4 17 -8 5
-6 13 6 26 21 23 18 23 79 0z m170 9 c-3 -5 -12 -10 -20 -10 -12 0 -30 -27
-27 -42 4 -19 -28 -5 -61 26 l-36 34 75 1 c49 1 73 -2 69 -9z m265 0 c8 -5 10
-10 4 -10 -7 0 -19 -16 -28 -35 -20 -42 -39 -47 -30 -7 7 24 5 25 -9 14 -13
-11 -22 -9 -58 17 l-42 31 74 0 c41 0 81 -5 89 -10z m-985 -20 c3 -5 1 -10 -4
-10 -6 0 -11 5 -11 10 0 6 2 10 4 10 3 0 8 -4 11 -10z m-365 -14 c0 -23 -16
-27 -17 -5 -1 10 2 19 8 19 5 0 9 -6 9 -14z m370 -19 c0 -18 -21 -37 -42 -37
-15 0 -15 3 5 24 25 27 37 32 37 13z m1061 -109 c-2 -93 -6 -117 -22 -140 -11
-15 -29 -28 -39 -28 -44 0 -43 136 1 147 12 4 19 13 18 27 -4 47 1 81 10 67 5
-8 7 -20 4 -28 -3 -7 0 -13 6 -13 6 0 11 19 11 47 0 25 3 43 7 39 4 -3 6 -57
4 -118z m-986 82 c3 -5 -1 -10 -10 -10 -9 0 -13 5 -10 10 3 6 8 10 10 10 2 0
7 -4 10 -10z m-819 -88 c-13 -12 -17 8 -10 40 l9 33 3 -33 c2 -19 1 -36 -2
-40z m1691 62 c-3 -3 -12 -4 -19 -1 -8 3 -5 6 6 6 11 1 17 -2 13 -5z m-1756
-66 c-5 -13 -16 -36 -25 -53 -9 -16 -16 -37 -16 -46 0 -9 -7 -22 -15 -29 -8
-7 -15 -22 -15 -34 0 -11 -5 -28 -10 -36 -7 -12 -10 -8 -10 15 0 17 7 40 15
52 9 12 14 26 13 31 -4 12 55 122 64 122 4 0 4 -10 -1 -22z m59 -12 c0 -2 -7
-6 -15 -10 -8 -3 -15 -1 -15 4 0 6 7 10 15 10 8 0 15 -2 15 -4z m1115 -36
c-27 -4 -44 -8 -36 -8 8 -1 12 -4 10 -7 -3 -2 -23 2 -44 10 l-40 14 80 -1 c73
-1 76 -2 30 -8z m-1147 -35 c-3 -28 -11 -24 -13 5 -1 11 2 20 7 20 4 0 7 -11
6 -25z m1173 7 c-13 -2 -27 0 -32 5 -6 6 3 7 23 4 28 -4 29 -6 9 -9z m1029
-22 c0 -5 -2 -10 -4 -10 -3 0 -8 5 -11 10 -3 6 -1 10 4 10 6 0 11 -4 11 -10z
m-1360 -30 c0 -5 -2 -10 -4 -10 -3 0 -8 5 -11 10 -3 6 -1 10 4 10 6 0 11 -4
11 -10z m1467 -6 c13 -4 20 -10 17 -15 -3 -5 0 -9 6 -9 6 0 4 -7 -5 -16 -9 -9
-35 -18 -58 -20 -41 -3 -41 -2 -19 13 12 8 22 24 22 34 0 21 4 22 37 13z
m-1470 -124 c-2 -61 -7 -114 -10 -117 -4 -3 -6 47 -5 111 1 66 5 116 11 116 5
0 7 -43 4 -110z m1538 100 c3 -6 -1 -7 -9 -4 -18 7 -21 14 -7 14 6 0 13 -4 16
-10z m67 -2 c-9 -9 -15 -9 -24 0 -9 9 -7 12 12 12 19 0 21 -3 12 -12z m-1212
-85 c0 -27 -4 -43 -9 -37 -8 8 -4 84 5 84 2 0 4 -21 4 -47z m995 23 c10 -10
11 -16 2 -25 -18 -18 -27 -13 -27 14 0 28 6 31 25 11z m-775 -114 c-5 -98 -17
-122 -59 -121 -20 0 -22 2 -8 7 35 14 57 63 57 128 0 49 5 74 14 74 1 0 -1
-40 -4 -88z m143 5 c35 -43 57 -110 40 -120 -6 -4 -10 10 -11 29 -1 22 -11 45
-26 62 -13 15 -41 47 -62 72 -37 42 -38 43 -8 22 17 -11 47 -41 67 -65z m-948
63 c6 -9 -17 -40 -29 -40 -3 0 -6 11 -6 25 0 25 23 35 35 15z m655 -35 c0 -8
-4 -15 -10 -15 -5 0 -7 7 -4 15 4 8 8 15 10 15 2 0 4 -7 4 -15z m357 -32 c-3
-10 -5 -2 -5 17 0 19 2 27 5 18 2 -10 2 -26 0 -35z m-368 2 c15 -20 18 -35 14
-63 -10 -65 -20 -75 -64 -68 l-39 6 -1 -67 c-2 -101 1 -126 17 -144 18 -20 18
-39 -1 -39 -9 0 -15 -9 -15 -25 0 -14 -4 -25 -9 -25 -14 0 -21 160 -11 250 5
47 10 94 10 105 0 16 2 17 10 5 12 -19 25 -6 15 17 -29 65 30 103 74 48z
m1209 -2 c-10 -2 -26 -2 -35 0 -10 3 -2 5 17 5 19 0 27 -2 18 -5z m-1811 -25
c-3 -8 -6 -5 -6 6 -1 11 2 17 5 13 3 -3 4 -12 1 -19z m66 -115 c10 -150 9
-223 -3 -223 -19 0 -10 -36 9 -37 16 -1 19 9 25 74 3 42 6 116 6 165 0 66 3
87 12 82 8 -5 9 -2 5 9 -4 11 -1 17 7 17 20 0 22 -13 24 -155 l2 -130 87 -3
c49 -1 121 -5 161 -8 62 -5 72 -8 72 -25 0 -16 -8 -19 -57 -21 l-58 -2 58 -3
c31 -2 57 -8 57 -12 0 -4 -59 -6 -130 -4 -114 2 -133 5 -152 23 -27 25 -38 25
-38 1 0 -10 -9 -21 -20 -24 -26 -7 -139 4 -145 13 -3 5 -20 5 -38 0 -58 -13
-112 23 -102 68 3 12 1 22 -5 22 -12 0 -13 10 0 30 14 23 24 4 21 -42 -1 -25
3 -44 11 -49 17 -11 79 -11 97 0 17 11 6 47 -17 60 -9 5 -35 24 -57 41 l-40
33 33 -6 c17 -4 32 -5 32 -2 0 2 -19 22 -42 44 -39 37 -41 41 -20 41 13 0 21
-4 18 -9 -6 -9 11 -20 28 -17 5 0 13 -10 17 -22 14 -38 31 -20 33 34 1 49 5
56 67 132 27 32 36 12 42 -95z m904 85 c-3 -8 -6 -5 -6 6 -1 11 2 17 5 13 3
-3 4 -12 1 -19z m-128 -30 c1 -5 -3 -8 -9 -8 -5 0 -10 12 -9 28 0 24 1 25 9 7
5 -11 9 -23 9 -27z m971 22 c0 -5 -4 -10 -10 -10 -5 0 -10 5 -10 10 0 6 5 10
10 10 6 0 10 -4 10 -10z m13 -38 c-6 -23 -23 -31 -19 -9 2 16 17 39 22 35 2
-2 1 -14 -3 -26z m-922 -27 c0 -15 -68 -23 -125 -15 -28 4 -42 8 -30 9 11 0
24 5 30 10 20 20 125 17 125 -4z m-1721 -3 c0 -13 -40 -43 -50 -37 -17 10 -11
25 13 35 28 11 37 12 37 2z m1518 -9 c-10 -2 -26 -2 -35 0 -10 3 -2 5 17 5 19
0 27 -2 18 -5z m-1462 -38 c-4 -14 -12 -25 -18 -25 -9 0 -9 3 0 12 7 7 12 21
12 32 0 10 3 17 6 13 4 -3 4 -18 0 -32z m449 15 c3 -5 -1 -10 -10 -10 -9 0
-13 5 -10 10 3 6 8 10 10 10 2 0 7 -4 10 -10z m865 -15 c0 -14 -4 -25 -10 -25
-11 0 -14 33 -3 43 11 11 13 8 13 -18z m-1017 -5 c-3 -11 -7 -20 -9 -20 -2 0
-4 9 -4 20 0 11 4 20 9 20 5 0 7 -9 4 -20z m397 16 c0 -3 -4 -8 -10 -11 -5 -3
-10 -1 -10 4 0 6 5 11 10 11 6 0 10 -2 10 -4z m757 -2 c-3 -3 -12 -4 -19 -1
-8 3 -5 6 6 6 11 1 17 -2 13 -5z m71 -86 c3 -81 1 -87 -15 -81 -28 10 -33 23
-33 91 0 52 3 62 18 63 15 0 14 2 -3 10 -18 8 -18 8 5 6 24 -2 25 -4 28 -89z
m142 82 c0 -5 -11 -10 -25 -10 -14 0 -25 5 -25 10 0 6 11 10 25 10 14 0 25 -4
25 -10z m-1290 -20 c0 -5 -5 -10 -11 -10 -5 0 -7 5 -4 10 3 6 8 10 11 10 2 0
4 -4 4 -10z m974 -2 c-10 -16 -5 -91 6 -102 6 -6 30 -9 54 -7 31 1 45 -2 49
-14 5 -13 -5 -15 -71 -15 -47 0 -83 5 -90 12 -15 15 -16 52 -2 43 6 -4 8 -10
5 -15 -3 -5 0 -12 6 -16 8 -5 9 -3 4 6 -6 10 -4 12 11 6 15 -6 16 -5 7 5 -7 7
-9 24 -6 41 5 24 3 27 -13 22 -15 -5 -14 -2 6 19 26 27 47 36 34 15z m104 -2
c7 -7 -12 -36 -23 -36 -8 0 -10 -9 -7 -25 4 -22 1 -25 -27 -25 -31 0 -31 1
-27 43 2 23 5 46 5 51 1 7 70 0 79 -8z m128 6 c6 -4 15 -26 19 -50 7 -43 7
-44 -21 -40 -27 3 -29 7 -32 51 -3 47 6 58 34 39z m1204 -17 c0 -14 -2 -25 -4
-25 -2 0 -6 11 -8 25 -3 14 -1 25 3 25 5 0 9 -11 9 -25z m-3167 -27 c-2 -5 2
-8 9 -8 14 0 17 -48 5 -67 -4 -6 -1 -14 5 -16 7 -3 3 -6 -8 -6 -14 -1 -24 7
-28 22 -8 31 -8 102 1 111 8 8 23 -25 16 -36z m2045 -3 c0 -38 -3 -45 -19 -45
-16 0 -19 7 -19 45 0 38 3 45 19 45 16 0 19 -7 19 -45z m-1866 18 c-1 -4 6
-15 13 -24 8 -8 16 -26 17 -40 2 -19 -2 -25 -22 -27 -22 -4 -23 -2 -10 14 9
11 10 15 3 10 -10 -5 -13 5 -13 40 0 26 3 45 6 42 3 -4 6 -10 6 -15z m-82 -43
c0 -27 -4 -50 -8 -50 -5 0 -8 21 -6 48 2 53 2 52 9 52 3 0 5 -22 5 -50z m725
31 c-3 -6 -11 -11 -17 -11 -6 0 -6 6 2 15 14 17 26 13 15 -4z m-542 -12 c-23
-23 -53 -20 -53 6 0 11 10 15 37 15 l37 0 -21 -21z m493 -5 c16 -13 16 -15 2
-10 -10 3 -17 0 -15 -6 1 -6 -4 -13 -10 -15 -7 -3 -13 2 -13 11 0 9 -6 16 -12
16 -9 0 -8 4 2 10 20 13 23 13 46 -6z m202 -1 c-10 -2 -26 -2 -35 0 -10 3 -2
5 17 5 19 0 27 -2 18 -5z m862 -19 c0 -14 -4 -23 -10 -19 -5 3 -10 15 -10 26
0 10 5 19 10 19 6 0 10 -12 10 -26z m827 20 c-3 -3 -12 -4 -19 -1 -8 3 -5 6 6
6 11 1 17 -2 13 -5z m473 -5 c0 -11 -57 -12 -64 -1 -3 4 11 9 30 9 19 1 34 -3
34 -8z m110 -70 c0 -10 -3 -19 -6 -19 -12 0 -95 72 -90 78 4 3 24 -9 47 -27
29 -24 37 -27 27 -12 -7 12 -16 21 -20 21 -5 0 -8 8 -8 18 1 25 50 -33 50 -59z
m-188 39 c13 -6 28 -12 33 -13 16 0 49 -28 67 -55 15 -24 15 -26 -2 -27 -10
-1 -37 15 -61 35 -26 23 -44 32 -47 24 -5 -15 -41 2 -60 29 -9 14 -21 17 -45
13 -25 -5 -29 -3 -17 6 18 13 100 6 132 -12z m-2092 3 c0 -4 -11 -6 -25 -3
-14 2 -25 6 -25 8 0 2 11 4 25 4 14 0 25 -4 25 -9z m1005 -20 c3 -5 -3 -12
-12 -14 -14 -4 -13 -5 4 -6 23 -1 26 -32 4 -39 -27 -9 -44 25 -32 66 2 6 31 1
36 -7z m75 -1 c0 -5 -9 -10 -20 -10 -11 0 -20 5 -20 10 0 6 9 10 20 10 11 0
20 -4 20 -10z m0 -24 c0 -2 3 -11 6 -20 5 -12 0 -16 -18 -16 -30 0 -38 7 -31
26 4 12 43 21 43 10z m-2340 -16 c0 -5 -2 -10 -4 -10 -3 0 -8 5 -11 10 -3 6
-1 10 4 10 6 0 11 -4 11 -10z m58 3 c-10 -2 -26 -2 -35 0 -10 3 -2 5 17 5 19
0 27 -2 18 -5z m105 0 c-7 -2 -21 -2 -30 0 -10 3 -4 5 12 5 17 0 24 -2 18 -5z
m950 -10 c-5 -12 -2 -15 10 -10 21 8 21 6 2 -29 -10 -19 -12 -46 -9 -86 6 -61
-8 -80 -26 -34 -5 13 -14 26 -20 28 -6 2 -8 11 -5 21 4 9 11 14 16 11 5 -3 10
12 10 33 1 21 2 43 4 48 1 6 3 16 3 23 1 6 6 12 12 12 5 0 6 -8 3 -17z m2027
-3 c0 -13 -5 -18 -14 -14 -8 3 -12 12 -9 20 8 21 23 17 23 -6z m-1880 -11 c0
-5 -4 -9 -10 -9 -5 0 -10 7 -10 16 0 8 5 12 10 9 6 -3 10 -10 10 -16z m1015
-19 c4 -6 -22 -10 -70 -10 -48 0 -74 4 -70 10 3 6 35 10 70 10 35 0 67 -4 70
-10z m75 -15 c0 -8 -4 -15 -10 -15 -5 0 -10 5 -10 10 0 6 -5 10 -11 10 -5 0
-7 -4 -4 -10 3 -5 0 -10 -8 -10 -7 0 -14 7 -14 15 0 10 10 15 29 15 18 0 28
-5 28 -15z m789 -22 c0 -31 -2 -34 -9 -18 -12 28 -12 55 0 55 6 0 10 -17 9
-37z m306 -21 c-3 -3 -18 7 -33 23 l-27 28 33 -23 c18 -12 31 -25 27 -28z
m-1187 31 c-15 -2 -42 -2 -60 0 -18 2 -6 4 27 4 33 0 48 -2 33 -4z m-1581 -55
c-3 -7 -5 -2 -5 12 0 14 2 19 5 13 2 -7 2 -19 0 -25z m653 5 c0 -13 5 -23 10
-23 6 0 10 5 10 10 0 6 3 10 8 10 10 0 32 -49 24 -54 -4 -2 -52 -3 -107 -2
l-100 1 -3 28 c-6 52 0 56 82 54 72 -2 76 -3 76 -24z m477 21 c-3 -3 -12 -4
-19 -1 -8 3 -5 6 6 6 11 1 17 -2 13 -5z m181 -1 c-10 -2 -26 -2 -35 0 -10 3
-2 5 17 5 19 0 27 -2 18 -5z m339 1 c-3 -3 -12 -4 -19 -1 -8 3 -5 6 6 6 11 1
17 -2 13 -5z m88 -4 c-3 -5 -15 -10 -26 -10 -10 0 -19 5 -19 10 0 6 12 10 26
10 14 0 23 -4 19 -10z m-859 -26 c-3 -9 -6 -27 -6 -40 0 -17 -6 -24 -18 -24
-15 0 -19 8 -20 40 -2 37 0 40 24 40 20 0 25 -4 20 -16z m284 -3 c0 -11 -4
-23 -10 -26 -5 -3 -10 1 -10 9 0 9 -5 16 -11 16 -5 0 -7 5 -4 10 11 17 35 11
35 -9z m1737 -8 c18 -1 41 -7 50 -12 13 -8 5 -9 -32 -5 -27 4 -57 13 -65 22
-13 13 -13 14 0 6 8 -5 30 -9 47 -11z m-1156 -5 c2 -26 -3 -63 -10 -71 -11
-11 -39 2 -37 16 1 7 5 18 10 26 5 8 4 16 -4 21 -10 6 -8 9 6 13 31 8 34 7 35
-5z m-621 -68 c0 -5 -2 -10 -4 -10 -3 0 -8 5 -11 10 -3 6 -1 10 4 10 6 0 11
-4 11 -10z m70 2 c0 -4 -9 -8 -20 -8 -11 0 -20 4 -20 8 0 4 9 8 20 8 11 0 20
-4 20 -8z m-252 -124 c5 -26 -34 -23 -41 3 -4 16 -1 20 16 17 12 -2 23 -11 25
-20z m2167 -18 c3 -5 1 -10 -4 -10 -6 0 -11 5 -11 10 0 6 2 10 4 10 3 0 8 -4
11 -10z m-2455 -10 c0 -5 -4 -10 -10 -10 -5 0 -10 5 -10 10 0 6 5 10 10 10 6
0 10 -4 10 -10z m2430 -25 c0 -8 -2 -15 -4 -15 -2 0 -6 7 -10 15 -3 8 -1 15 4
15 6 0 10 -7 10 -15z m-2007 -12 c-7 -2 -21 -2 -30 0 -10 3 -4 5 12 5 17 0 24
-2 18 -5z m2161 -37 c-20 -15 -39 -12 -28 5 3 5 9 7 14 4 5 -3 12 0 15 6 4 5
10 8 13 5 3 -4 -3 -13 -14 -20z m383 -105 c-1 -18 -12 -19 -174 -20 -150 -1
-172 1 -167 14 7 18 41 20 46 3 3 -7 9 -8 19 -3 22 15 100 17 116 4 10 -9 17
-9 25 -1 7 7 23 12 38 12 20 0 22 -2 10 -10 -13 -9 -13 -10 0 -10 8 1 24 7 34
15 28 21 55 19 53 -4z m84 -48 c-17 -3 -20 -7 -12 -13 7 -4 9 -10 5 -13 -5 -3
-20 3 -33 14 l-23 19 43 -1 c27 -1 34 -4 20 -6z m131 0 c-6 -2 -9 -10 -5 -16
5 -9 3 -9 -8 -1 -8 6 -21 14 -29 17 -8 3 1 5 20 5 19 0 29 -2 22 -5z m38 -3
c0 -5 -2 -10 -4 -10 -3 0 -8 5 -11 10 -3 6 -1 10 4 10 6 0 11 -4 11 -10z
m-215 -20 c3 -5 1 -10 -4 -10 -6 0 -11 5 -11 10 0 6 2 10 4 10 3 0 8 -4 11
-10z m-478 -26 c-3 -3 -12 -4 -19 -1 -8 3 -5 6 6 6 11 1 17 -2 13 -5z"/>
<path d="M2385 3310 c-8 -13 5 -13 25 0 13 8 13 10 -2 10 -9 0 -20 -4 -23 -10z"/>
<path d="M4510 3095 c7 -8 17 -15 22 -15 6 0 5 7 -2 15 -7 8 -17 15 -22 15 -6
0 -5 -7 2 -15z"/>
<path d="M2462 2555 c0 -16 2 -22 5 -12 2 9 2 23 0 30 -3 6 -5 -1 -5 -18z"/>
<path d="M2780 2430 c0 -5 5 -10 10 -10 6 0 10 5 10 10 0 6 -4 10 -10 10 -5 0
-10 -4 -10 -10z"/>
<path d="M3510 2312 c0 -14 8 -19 31 -20 23 -1 29 3 25 14 -3 9 -6 18 -6 20 0
2 -11 4 -25 4 -18 0 -25 -5 -25 -18z"/>
<path d="M2836 2255 c9 -21 74 -88 74 -75 0 19 -21 54 -44 72 -26 22 -37 23
-30 3z"/>
<path d="M3022 2210 c-12 -12 -22 -25 -22 -30 0 -18 46 -59 72 -66 24 -5 29
-2 44 30 17 35 17 36 -6 61 -28 30 -59 32 -88 5z m58 -15 c0 -8 -6 -15 -12
-16 -10 0 -10 -2 0 -6 17 -6 15 -43 -2 -43 -14 0 -24 33 -18 63 4 21 32 23 32
2z"/>
<path d="M3735 2121 c31 -13 93 -24 75 -13 -8 5 -33 12 -55 16 -26 4 -33 3
-20 -3z"/>
<path d="M2393 1920 c0 -30 2 -43 4 -27 2 15 2 39 0 55 -2 15 -4 2 -4 -28z"/>
<path d="M2422 1710 c0 -19 4 -48 8 -65 7 -27 8 -26 8 15 0 25 -3 54 -8 65 -7
16 -9 13 -8 -15z"/>
<path d="M3250 2421 c0 -6 5 -13 10 -16 6 -3 10 1 10 9 0 9 -4 16 -10 16 -5 0
-10 -4 -10 -9z"/>
<path d="M3371 2324 c0 -11 3 -14 6 -6 3 7 2 16 -1 19 -3 4 -6 -2 -5 -13z"/>
<path d="M2070 1868 c0 -19 2 -20 10 -8 13 19 13 30 0 30 -5 0 -10 -10 -10
-22z"/>
<path d="M2965 1940 c-3 -5 1 -10 10 -10 9 0 13 5 10 10 -3 6 -8 10 -10 10 -2
0 -7 -4 -10 -10z"/>
<path d="M3714 1886 c-3 -9 -12 -12 -22 -9 -12 5 -14 2 -9 -11 4 -10 7 -25 7
-34 0 -12 5 -11 25 8 14 13 25 32 25 42 0 21 -18 24 -26 4z"/>
<path d="M3638 1803 c6 -2 18 -2 25 0 6 3 1 5 -13 5 -14 0 -19 -2 -12 -5z"/>
<path d="M3468 1753 c7 -3 16 -2 19 1 4 3 -2 6 -13 5 -11 0 -14 -3 -6 -6z"/>
<path d="M3553 1743 c9 -2 25 -2 35 0 9 3 1 5 -18 5 -19 0 -27 -2 -17 -5z"/>
<path d="M2968 1723 c7 -3 16 -2 19 1 4 3 -2 6 -13 5 -11 0 -14 -3 -6 -6z"/>
<path d="M3548 1723 c7 -3 16 -2 19 1 4 3 -2 6 -13 5 -11 0 -14 -3 -6 -6z"/>
<path d="M3132 1668 c-19 -19 -14 -33 6 -15 11 10 27 13 46 10 20 -4 27 -2 22
6 -9 15 -59 14 -74 -1z"/>
<path d="M3548 1933 c7 -3 16 -2 19 1 4 3 -2 6 -13 5 -11 0 -14 -3 -6 -6z"/>
<path d="M2780 1190 c0 -5 5 -10 10 -10 6 0 10 5 10 10 0 6 -4 10 -10 10 -5 0
-10 -4 -10 -10z"/>
<path d="M2606 971 c-4 -5 -2 -12 3 -15 5 -4 12 -2 15 3 4 5 2 12 -3 15 -5 4
-12 2 -15 -3z"/>
<path d="M5478 553 c6 -2 18 -2 25 0 6 3 1 5 -13 5 -14 0 -19 -2 -12 -5z"/>
<path d="M4280 2495 c0 -14 6 -25 13 -25 20 0 25 9 20 31 -8 28 -33 24 -33 -6z"/>
<path d="M4290 2260 c0 -5 7 -10 15 -10 8 0 15 5 15 10 0 6 -7 10 -15 10 -8 0
-15 -4 -15 -10z"/>
<path d="M4300 2014 c0 -8 5 -12 10 -9 6 3 10 10 10 16 0 5 -4 9 -10 9 -5 0
-10 -7 -10 -16z"/>
<path d="M4300 1780 c0 -5 5 -10 11 -10 5 0 7 5 4 10 -3 6 -8 10 -11 10 -2 0
-4 -4 -4 -10z"/>
<path d="M3877 1563 c-4 -3 -7 -11 -7 -17 0 -6 5 -5 12 2 6 6 9 14 7 17 -3 3
-9 2 -12 -2z"/>
<path d="M3870 1511 c0 -5 5 -13 10 -16 6 -3 10 -2 10 4 0 5 -4 13 -10 16 -5
3 -10 2 -10 -4z"/>
<path d="M1451 1385 c-60 -22 -98 -45 -75 -45 6 0 15 5 21 11 13 13 83 30 83
19 0 -4 -7 -11 -16 -14 -8 -3 -13 -10 -10 -15 6 -9 206 -5 238 5 9 3 19 0 23
-5 6 -11 -17 -18 -75 -24 -21 -2 -10 -4 25 -5 56 -2 61 0 62 19 3 34 22 47 38
26 8 -12 15 -14 20 -8 8 13 65 15 65 2 0 -11 44 0 79 19 32 17 17 25 -18 10
-16 -6 -35 -8 -42 -4 -9 5 -7 10 7 15 11 4 -29 8 -91 9 -60 1 -146 3 -190 5
-65 3 -92 0 -144 -20z m219 -25 c0 -5 -5 -10 -11 -10 -5 0 -7 5 -4 10 3 6 8
10 11 10 2 0 4 -4 4 -10z"/>
<path d="M1968 1393 c6 -2 18 -2 25 0 6 3 1 5 -13 5 -14 0 -19 -2 -12 -5z"/>
<path d="M1553 1313 c9 -2 23 -2 30 0 6 3 -1 5 -18 5 -16 0 -22 -2 -12 -5z"/>
<path d="M1855 1300 c-3 -5 -2 -10 4 -10 5 0 13 5 16 10 3 6 2 10 -4 10 -5 0
-13 -4 -16 -10z"/>
<path d="M2274 1158 c4 -18 9 -52 13 -75 4 -29 9 -40 19 -36 10 3 11 10 4 22
-5 10 -12 41 -16 69 -3 29 -11 52 -17 52 -5 0 -7 -13 -3 -32z"/>
<path d="M4950 1180 c0 -5 5 -10 11 -10 5 0 7 5 4 10 -3 6 -8 10 -11 10 -2 0
-4 -4 -4 -10z"/>
<path d="M1223 1106 c-73 -37 -90 -51 -42 -34 32 11 109 56 109 64 0 5 6 8
-67 -30z"/>
<path d="M2250 1078 c0 -27 5 -48 10 -48 13 0 13 60 0 80 -7 11 -10 2 -10 -32z"/>
<path d="M1666 1068 c3 -5 10 -6 15 -3 13 9 11 12 -6 12 -8 0 -12 -4 -9 -9z"/>
<path d="M1420 1060 c0 -4 9 -10 20 -13 11 -3 20 -2 20 3 0 4 -9 10 -20 13
-11 3 -20 2 -20 -3z"/>
<path d="M1725 1045 c-17 -13 -25 -24 -20 -24 14 -1 61 37 54 43 -2 3 -18 -6
-34 -19z"/>
<path d="M1093 1040 c-13 -5 -23 -12 -23 -15 0 -9 16 -5 36 10 22 16 19 18
-13 5z"/>
<path d="M1640 1030 c-9 -6 -10 -10 -3 -10 6 0 15 5 18 10 8 12 4 12 -15 0z"/>
<path d="M2300 1020 c-13 -8 -13 -10 2 -10 9 0 20 5 23 10 8 13 -5 13 -25 0z"/>
<path d="M4300 1020 c0 -5 5 -10 11 -10 5 0 7 5 4 10 -3 6 -8 10 -11 10 -2 0
-4 -4 -4 -10z"/>
<path d="M900 939 c-63 -31 -216 -108 -340 -169 -123 -61 -235 -120 -247 -132
-31 -29 -32 -104 -3 -141 l21 -26 424 -1 c349 0 425 2 425 13 0 9 9 12 30 9
16 -2 27 -8 24 -13 -3 -5 7 -9 23 -9 22 0 25 2 13 10 -8 5 -10 10 -5 10 6 0
15 -4 21 -10 6 -6 244 -10 661 -10 498 -1 653 -4 656 -13 5 -15 1573 -22 1582
-6 4 5 11 6 17 3 16 -10 118 -13 118 -4 0 17 34 20 51 4 12 -11 19 -13 19 -5
0 9 5 9 20 1 14 -7 20 -7 20 0 0 5 5 10 11 10 5 0 7 -4 4 -10 -3 -5 1 -10 9
-10 9 0 16 4 16 9 0 5 9 11 20 14 13 3 20 0 20 -9 0 -19 26 -18 34 1 6 17 66
21 66 4 0 -7 -10 -9 -27 -4 -16 4 -25 4 -21 0 3 -4 23 -10 42 -15 31 -7 38 -5
47 11 7 13 21 19 47 20 26 1 31 3 17 7 -27 9 -33 52 -8 53 16 0 16 1 -2 9 -22
9 -45 -11 -45 -40 0 -15 -27 -17 -280 -19 -260 -2 -280 -1 -280 15 0 17 -1 16
-13 0 -11 -15 -21 -17 -54 -11 -23 3 -49 13 -60 20 -17 14 -17 14 2 15 l20 1
-20 8 c-11 5 -22 5 -25 0 -6 -9 -80 12 -80 23 0 5 -154 8 -342 8 -356 0 -449
-6 -171 -12 89 -2 159 -5 157 -7 -3 -3 6 -11 18 -18 l23 -12 -23 -1 c-13 0
-20 -4 -17 -10 4 -6 -146 -10 -430 -9 -239 0 -435 3 -435 7 0 10 -190 13 -913
15 -579 2 -599 3 -613 21 -19 26 -18 46 2 46 12 0 10 5 -7 19 -19 16 -25 17
-32 6 -6 -11 -72 -14 -350 -13 -188 0 -364 3 -392 8 -27 4 -40 8 -28 9 14 0
20 6 18 14 -5 12 69 67 91 67 11 0 52 20 194 95 56 29 71 37 163 81 21 10 45
19 52 20 7 1 30 14 51 28 21 14 47 26 56 26 10 0 32 13 50 30 18 16 31 29 28
28 -3 0 -57 -27 -120 -59z m-470 -379 c0 -17 -6 -20 -51 -20 -31 0 -48 4 -44
10 3 6 -1 10 -9 10 -8 0 -17 4 -20 9 -3 4 24 9 59 10 59 2 65 0 65 -19z m261
10 c22 0 31 -25 10 -28 -9 -1 -67 -4 -128 -7 -104 -4 -113 -3 -113 14 0 30 12
33 115 27 55 -3 107 -6 116 -6z m392 -10 c-6 -23 -23 -26 -41 -8 -10 10 -15
10 -23 -2 -8 -11 -12 -12 -16 -2 -6 14 -33 16 -33 2 0 -5 -5 -10 -11 -10 -5 0
-7 5 -4 10 4 6 -9 11 -32 12 -32 1 -30 2 17 8 30 4 76 7 102 8 42 2 46 0 41
-18z m-283 -5 c0 -8 -7 -15 -16 -15 -8 0 -13 4 -10 9 4 5 0 12 -6 14 -7 3 -3
6 10 6 13 1 22 -5 22 -14z m74 6 c4 -5 -3 -7 -14 -4 -23 6 -26 13 -6 13 8 0
17 -4 20 -9z m2706 -27 c0 -2 -9 -4 -20 -4 -11 0 -20 4 -20 9 0 5 9 7 20 4 11
-3 20 -7 20 -9z m10 -34 c0 -5 -8 -10 -17 -10 -15 0 -16 2 -3 10 19 12 20 12
20 0z m67 -6 c-3 -3 -12 -4 -19 -1 -8 3 -5 6 6 6 11 1 17 -2 13 -5z m130 0
c-3 -3 -12 -4 -19 -1 -8 3 -5 6 6 6 11 1 17 -2 13 -5z m90 0 c-3 -3 -12 -4
-19 -1 -8 3 -5 6 6 6 11 1 17 -2 13 -5z m-2730 -10 c-3 -3 -12 -4 -19 -1 -8 3
-5 6 6 6 11 1 17 -2 13 -5z"/>
<path d="M4333 993 c15 -2 39 -2 55 0 15 2 2 4 -28 4 -30 0 -43 -2 -27 -4z"/>
<path d="M2150 970 c-23 -7 -23 -8 -3 -9 12 -1 29 -4 39 -8 11 -4 15 -2 12 7
-6 18 -17 20 -48 10z"/>
<path d="M2250 957 c0 -16 7 -26 20 -30 11 -3 20 -1 20 4 0 5 -4 9 -10 9 -5 0
-10 6 -10 14 0 8 -4 18 -10 21 -6 3 -10 -5 -10 -18z"/>
<path d="M2312 971 c-11 -7 -11 -9 2 -14 10 -4 16 -1 16 8 0 17 -1 17 -18 6z"/>
<path d="M1074 951 c17 -18 17 -20 -1 -30 -16 -9 -15 -10 9 -11 20 0 25 4 23
18 -2 9 -4 23 -4 30 -1 6 -11 12 -23 12 -20 0 -20 -1 -4 -19z"/>
<path d="M2100 960 c0 -5 5 -10 11 -10 5 0 7 5 4 10 -3 6 -8 10 -11 10 -2 0
-4 -4 -4 -10z"/>
<path d="M3503 963 c9 -2 25 -2 35 0 9 3 1 5 -18 5 -19 0 -27 -2 -17 -5z"/>
<path d="M1620 939 c0 -12 67 -12 75 0 3 6 -12 10 -35 9 -22 0 -40 -4 -40 -9z"/>
<path d="M1158 933 c23 -2 61 -2 85 0 23 2 4 4 -43 4 -47 0 -66 -2 -42 -4z"/>
<path d="M1560 905 c0 -6 -20 -27 -45 -45 -45 -34 -46 -36 -43 -84 l3 -49 88
0 c49 0 93 5 98 10 5 5 11 25 14 43 2 18 10 37 17 41 8 6 1 9 -19 9 -18 0 -33
5 -33 10 0 6 18 10 40 10 22 0 40 4 40 8 0 4 -15 6 -34 4 -18 -2 -37 1 -40 7
-4 6 0 11 11 11 11 0 19 8 20 19 2 19 0 19 -39 5 -51 -18 -53 -18 -38 1 11 13
8 15 -14 13 -14 -1 -26 -7 -26 -13z m43 -62 c-7 -2 -21 -2 -30 0 -10 3 -4 5
12 5 17 0 24 -2 18 -5z"/>
<path d="M4600 906 c14 -18 14 -19 -7 -7 -15 7 -23 8 -23 1 0 -5 -21 -10 -47
-10 -51 0 -50 -15 2 -23 17 -2 -8 -5 -55 -7 -47 -2 -70 -5 -52 -7 17 -2 32 -9
32 -15 0 -12 -38 -6 -95 15 -107 39 -125 28 -20 -13 83 -32 86 -35 72 -73 -19
-51 -30 -65 -56 -69 -19 -2 -26 3 -34 27 -13 41 -32 60 -98 100 -66 40 -85 45
-67 15 7 -11 18 -20 25 -20 17 0 17 -26 1 -33 -23 -8 -33 -7 -33 5 0 6 -5 13
-11 15 -8 3 -11 -14 -9 -52 1 -30 -2 -55 -6 -55 -5 0 -9 8 -9 18 0 31 -42 60
-110 76 -82 20 -100 20 -100 1 0 -8 -4 -15 -9 -15 -5 0 -12 -10 -16 -22 -6
-21 -8 -21 -22 13 -12 30 -23 39 -76 58 -83 31 -122 38 -112 21 14 -22 18
-130 5 -130 -6 0 -10 7 -8 16 2 10 -3 19 -11 22 -9 3 -11 -1 -6 -17 5 -16 3
-20 -9 -15 -9 3 -13 10 -10 15 3 5 0 9 -5 9 -6 0 -11 7 -11 16 0 10 -5 14 -15
10 -11 -4 -19 3 -26 21 -13 36 -27 19 -29 -37 -3 -80 -3 -80 35 -80 19 0 35
-4 35 -10 0 -5 7 -10 16 -10 10 0 14 -6 11 -14 -4 -9 0 -12 12 -9 10 2 24 -2
32 -10 8 -8 36 -17 61 -21 43 -6 47 -5 45 13 -1 12 -9 24 -19 27 -24 7 -23 20
1 20 11 0 18 -3 15 -7 -5 -8 46 -22 54 -14 3 3 -2 5 -11 5 -9 0 -17 7 -17 15
0 8 9 15 20 15 11 0 20 7 20 15 0 12 14 14 83 9 73 -5 101 -7 145 -12 6 -1 12
-9 12 -18 0 -10 6 -14 15 -10 8 3 15 1 15 -3 0 -5 9 -7 20 -4 11 3 20 0 20 -6
0 -6 -5 -11 -11 -11 -5 0 -8 -4 -5 -9 3 -4 -6 -6 -19 -3 -14 2 -25 0 -25 -6 0
-13 37 -19 83 -14 41 5 50 28 16 40 -19 7 -20 10 -6 23 11 11 31 15 69 13 29
-2 99 -3 156 -3 56 0 102 -4 102 -9 0 -5 11 -14 25 -20 15 -7 25 -8 25 -2 0 6
9 10 20 10 11 0 20 5 20 10 0 6 -7 10 -15 10 -8 0 -15 4 -15 10 0 5 7 7 15 4
13 -5 15 4 13 52 -1 33 -8 66 -15 75 -12 14 -11 17 3 23 9 3 22 2 29 -4 9 -8
14 -8 17 0 2 8 13 6 33 -4 53 -28 60 -17 9 15 -27 17 -60 41 -74 53 -20 17
-22 17 -10 2z m-10 -31 c10 -12 10 -15 -4 -15 -9 0 -16 7 -16 15 0 8 2 15 4
15 2 0 9 -7 16 -15z m-23 -201 c-3 -3 -12 -4 -19 -1 -8 3 -5 6 6 6 11 1 17 -2
13 -5z"/>
<path d="M928 883 c6 -2 18 -2 25 0 6 3 1 5 -13 5 -14 0 -19 -2 -12 -5z"/>
<path d="M981 886 c8 -9 199 -12 199 -4 0 4 -46 8 -102 8 -56 0 -99 -2 -97 -4z"/>
<path d="M1735 880 c-8 -13 5 -13 25 0 13 8 13 10 -2 10 -9 0 -20 -4 -23 -10z"/>
<path d="M905 859 c-11 -4 35 -8 105 -8 69 1 121 2 115 4 -23 8 -202 11 -220
4z"/>
<path d="M1162 844 c-7 -8 -24 -14 -37 -14 -14 0 -25 -4 -25 -8 0 -14 71 0 77
15 8 20 0 23 -15 7z"/>
<path d="M910 830 c0 -6 4 -10 9 -10 4 0 6 -11 4 -24 -3 -13 -1 -26 4 -29 5
-3 9 10 9 28 0 19 -6 37 -13 39 -7 3 -13 1 -13 -4z"/>
<path d="M1810 770 c0 -22 4 -40 9 -40 14 0 25 21 14 29 -5 3 -8 16 -7 29 1
12 -3 22 -7 22 -5 0 -9 -18 -9 -40z"/>
<path d="M4746 794 c-9 -8 -16 -31 -16 -51 0 -22 -7 -41 -17 -49 -17 -13 -17
-13 2 -15 11 -1 4 -4 -15 -8 -26 -5 -34 -11 -32 -24 2 -9 -4 -20 -12 -23 -12
-5 -11 -9 5 -25 24 -24 29 -24 29 1 0 11 3 20 6 20 11 0 33 -28 27 -34 -4 -3
10 -6 30 -6 31 0 36 3 42 30 4 17 13 43 20 58 24 48 -7 142 -46 142 -4 0 -15
-7 -23 -16z m34 -118 c0 -3 -4 -8 -10 -11 -5 -3 -10 -1 -10 4 0 6 5 11 10 11
6 0 10 -2 10 -4z m-80 -26 c0 -5 -4 -10 -10 -10 -5 0 -10 5 -10 10 0 6 5 10
10 10 6 0 10 -4 10 -10z"/>
<path d="M623 736 c-18 -11 -33 -25 -33 -29 0 -8 23 3 55 26 32 24 13 27 -22
3z"/>
<path d="M810 750 c-8 -5 -10 -10 -5 -10 6 0 17 5 25 10 8 5 11 10 5 10 -5 0
-17 -5 -25 -10z"/>
<path d="M2450 670 c-12 -8 -11 -10 7 -10 16 0 21 -4 17 -15 -4 -8 -1 -15 6
-15 14 0 9 42 -5 47 -5 1 -17 -2 -25 -7z"/>
<path d="M4237 639 c-4 -16 -3 -18 9 -8 16 13 19 29 5 29 -5 0 -11 -9 -14 -21z"/>
<path d="M385 640 c-13 -5 15 -8 78 -8 53 1 97 4 97 7 0 10 -153 11 -175 1z"/>
<path d="M2313 643 c9 -2 25 -2 35 0 9 3 1 5 -18 5 -19 0 -27 -2 -17 -5z"/>
<path d="M2415 640 c3 -5 13 -10 21 -10 8 0 12 5 9 10 -3 6 -13 10 -21 10 -8
0 -12 -4 -9 -10z"/>
<path d="M3590 625 c-10 -12 -10 -15 4 -15 9 0 16 7 16 15 0 8 -2 15 -4 15 -2
0 -9 -7 -16 -15z"/>
<path d="M4270 636 c0 -2 7 -7 16 -10 8 -3 12 -2 9 4 -6 10 -25 14 -25 6z"/>
<path d="M4606 633 c-4 -5 -15 -8 -24 -9 -10 -1 -30 -2 -47 -3 -30 -3 -30 -3
-5 -10 35 -11 87 -2 94 15 6 15 -6 19 -18 7z"/>
<path d="M3630 620 c-13 -8 -12 -10 3 -10 9 0 17 -5 17 -11 0 -7 -12 -10 -32
-7 -18 3 -58 2 -88 -2 -48 -6 -42 -7 47 -9 91 -1 101 1 98 17 -2 9 -4 20 -4
25 -1 10 -23 9 -41 -3z"/>
<path d="M3797 620 c6 -7 9 -19 6 -26 -3 -8 0 -14 7 -14 6 0 9 4 5 9 -3 6 3
14 12 20 10 6 13 11 6 11 -6 0 -20 3 -30 6 -14 6 -16 4 -6 -6z"/>
<path d="M3908 613 c7 -3 16 -2 19 1 4 3 -2 6 -13 5 -11 0 -14 -3 -6 -6z"/>
<path d="M3950 616 c0 -2 9 -6 20 -9 11 -3 20 -1 20 4 0 5 -9 9 -20 9 -11 0
-20 -2 -20 -4z"/>
<path d="M4028 613 c6 -2 18 -2 25 0 6 3 1 5 -13 5 -14 0 -19 -2 -12 -5z"/>
<path d="M2460 596 c0 -9 5 -16 10 -16 6 0 10 4 10 9 0 6 -4 13 -10 16 -5 3
-10 -1 -10 -9z"/>
<path d="M1230 586 c0 -2 7 -6 15 -10 8 -3 15 -1 15 4 0 6 -7 10 -15 10 -8 0
-15 -2 -15 -4z"/>
<path d="M1275 581 c9 -8 124 -7 118 2 -2 4 -31 7 -64 6 -33 -1 -57 -5 -54 -8z"/>
<path d="M1520 579 c33 -9 107 -9 145 1 20 5 -5 8 -70 7 -59 0 -90 -4 -75 -8z"/>
<path d="M2078 583 c6 -2 18 -2 25 0 6 3 1 5 -13 5 -14 0 -19 -2 -12 -5z"/>
<path d="M2153 583 c9 -2 23 -2 30 0 6 3 -1 5 -18 5 -16 0 -22 -2 -12 -5z"/>
<path d="M2265 582 c14 -10 16 -45 2 -54 -7 -5 -3 -8 12 -8 16 0 22 4 17 15
-3 8 0 15 6 15 7 0 7 4 -1 13 -6 8 -8 17 -4 20 3 4 -5 7 -18 7 -13 0 -19 -4
-14 -8z"/>
<path d="M3718 583 c7 -3 16 -2 19 1 4 3 -2 6 -13 5 -11 0 -14 -3 -6 -6z"/>
<path d="M1748 573 c7 -3 16 -2 19 1 4 3 -2 6 -13 5 -11 0 -14 -3 -6 -6z"/>
<path d="M1928 573 c7 -3 16 -2 19 1 4 3 -2 6 -13 5 -11 0 -14 -3 -6 -6z"/>
<path d="M2445 559 c-18 -7 -18 -8 4 -8 16 -1 21 -5 17 -16 -3 -9 0 -15 10
-15 9 0 12 5 8 11 -3 6 -1 15 6 19 17 11 -21 19 -45 9z"/>
<path d="M2536 555 c4 -8 10 -12 15 -9 11 6 2 24 -11 24 -5 0 -7 -7 -4 -15z"/>
<path d="M2580 558 c0 -4 21 -8 47 -8 25 0 43 3 39 8 -10 10 -86 10 -86 0z"/>
<path d="M2705 560 c3 -5 10 -10 16 -10 5 0 9 5 9 10 0 6 -7 10 -16 10 -8 0
-12 -4 -9 -10z"/>
<path d="M2894 559 c-16 -4 38 -7 119 -7 82 0 146 2 144 5 -8 7 -231 9 -263 2z"/>
<path d="M1531 555 c10 -9 79 -13 74 -4 -4 5 -22 9 -42 9 -20 0 -34 -2 -32 -5z"/>
<path d="M3923 553 c15 -2 37 -2 50 0 12 2 0 4 -28 4 -27 0 -38 -2 -22 -4z"/>
<path d="M1485 540 c-3 -5 -1 -10 4 -10 6 0 11 5 11 10 0 6 -2 10 -4 10 -3 0
-8 -4 -11 -10z"/>
<path d="M1190 529 c0 -5 5 -7 10 -4 6 3 10 8 10 11 0 2 -4 4 -10 4 -5 0 -10
-5 -10 -11z"/>
<path d="M4008 533 c7 -3 16 -2 19 1 4 3 -2 6 -13 5 -11 0 -14 -3 -6 -6z"/>
<path d="M4423 533 c9 -2 25 -2 35 0 9 3 1 5 -18 5 -19 0 -27 -2 -17 -5z"/>
<path d="M4518 533 c7 -3 16 -2 19 1 4 3 -2 6 -13 5 -11 0 -14 -3 -6 -6z"/>
<path d="M4045 500 c27 -12 35 -12 35 0 0 6 -12 10 -27 9 -25 0 -26 -1 -8 -9z"/>
<path d="M4998 463 c-21 -5 -24 -23 -4 -23 8 0 16 7 20 15 3 8 4 14 3 14 -1
-1 -10 -3 -19 -6z"/>
<path d="M2553 453 c9 -2 23 -2 30 0 6 3 -1 5 -18 5 -16 0 -22 -2 -12 -5z"/>
<path d="M4735 450 c-3 -5 -1 -10 4 -10 6 0 11 5 11 10 0 6 -2 10 -4 10 -3 0
-8 -4 -11 -10z"/>
<path d="M4944 450 c-28 -11 -40 -30 -20 -30 9 0 16 5 16 10 0 6 7 10 15 10 8
0 15 5 15 10 0 6 -1 10 -2 9 -2 0 -13 -4 -24 -9z"/>
<path d="M4846 435 c-3 -8 -1 -15 4 -15 6 0 10 7 10 15 0 8 -2 15 -4 15 -2 0
-6 -7 -10 -15z"/>
<path d="M4878 443 c7 -3 16 -2 19 1 4 3 -2 6 -13 5 -11 0 -14 -3 -6 -6z"/>
</g>
</svg>
