<?xml version="1.0" encoding="UTF-8"?>
<!DOCTYPE svg PUBLIC "-//W3C//DTD SVG 1.1//EN" "http://www.w3.org/Graphics/SVG/1.1/DTD/svg11.dtd">
<svg xmlns="http://www.w3.org/2000/svg" version="1.1" width="400px" height="623px" style="shape-rendering:geometricPrecision; text-rendering:geometricPrecision; image-rendering:optimizeQuality; fill-rule:evenodd; clip-rule:evenodd" xmlns:xlink="http://www.w3.org/1999/xlink">
<g><path style="opacity:0.692" fill="#b9d58c" d="M 254.5,166.5 C 246.739,165.709 239.406,163.542 232.5,160C 207.713,155.234 183.046,155.401 158.5,160.5C 156.194,160.993 153.861,161.326 151.5,161.5C 178.451,153.221 205.784,152.388 233.5,159C 240.853,160.837 247.853,163.337 254.5,166.5 Z"/></g>
<g><path style="opacity:0.898" fill="#96ba5e" d="M 158.5,160.5 C 158.389,161.117 158.056,161.617 157.5,162C 152.909,163.462 148.243,164.628 143.5,165.5C 145.833,164.167 148.167,162.833 150.5,161.5C 150.833,161.5 151.167,161.5 151.5,161.5C 153.861,161.326 156.194,160.993 158.5,160.5 Z"/></g>
<g><path style="opacity:0.467" fill="#c0dc94" d="M 150.5,161.5 C 148.167,162.833 145.833,164.167 143.5,165.5C 141.194,165.993 138.861,166.326 136.5,166.5C 140.799,164.065 145.466,162.398 150.5,161.5 Z"/></g>
<g><path style="opacity:0.961" fill="#93bf52" d="M 143.5,165.5 C 139.274,166.81 135.274,168.976 131.5,172C 130.207,172.49 128.873,172.657 127.5,172.5C 130.672,170.748 133.672,168.748 136.5,166.5C 138.861,166.326 141.194,165.993 143.5,165.5 Z"/></g>
<g><path style="opacity:0.682" fill="#b7d487" d="M 254.5,166.5 C 258.582,167.376 262.249,169.043 265.5,171.5C 260.961,171.6 257.294,169.933 254.5,166.5 Z"/></g>
<g><path style="opacity:0.639" fill="#bdd891" d="M 136.5,166.5 C 133.672,168.748 130.672,170.748 127.5,172.5C 124.155,174.591 120.488,175.924 116.5,176.5C 122.57,172.132 129.236,168.798 136.5,166.5 Z"/></g>
<g><path style="opacity:0.871" fill="#bbd88e" d="M 265.5,171.5 C 267.819,171.992 269.819,172.992 271.5,174.5C 268.68,174.913 266.68,173.913 265.5,171.5 Z"/></g>
<g><path style="opacity:0.216" fill="#c6e09d" d="M 116.5,176.5 C 115.952,179.084 114.285,180.084 111.5,179.5C 112.659,177.75 114.326,176.75 116.5,176.5 Z"/></g>
<g><path style="opacity:0.216" fill="#dbe7b5" d="M 111.5,179.5 C 111.027,180.906 110.027,181.573 108.5,181.5C 108.973,180.094 109.973,179.427 111.5,179.5 Z"/></g>
<g><path style="opacity:1" fill="#92c14e" d="M 127.5,172.5 C 127.719,173.675 127.386,174.675 126.5,175.5C 119.904,179.631 112.904,182.964 105.5,185.5C 106.5,184.167 107.5,182.833 108.5,181.5C 110.027,181.573 111.027,180.906 111.5,179.5C 114.285,180.084 115.952,179.084 116.5,176.5C 120.488,175.924 124.155,174.591 127.5,172.5 Z"/></g>
<g><path style="opacity:0.149" fill="#cde2a7" d="M 108.5,181.5 C 107.5,182.833 106.5,184.167 105.5,185.5C 103.973,185.427 102.973,186.094 102.5,187.5C 101.833,187.5 101.167,187.5 100.5,187.5C 102.8,185.016 105.467,183.016 108.5,181.5 Z"/></g>
<g><path style="opacity:0.6" fill="#b4d286" d="M 271.5,174.5 C 283.248,180.246 293.581,187.913 302.5,197.5C 297.897,196.698 294.564,194.198 292.5,190C 288.104,187.475 284.104,184.475 280.5,181C 276.366,180.278 273.366,178.111 271.5,174.5 Z"/></g>
<g><path style="opacity:0.294" fill="#c3de9c" d="M 100.5,187.5 C 93.1931,194.472 85.8598,201.472 78.5,208.5C 84.5424,200.124 91.8757,193.124 100.5,187.5 Z"/></g>
<g><path style="opacity:0.557" fill="#b7d386" d="M 302.5,197.5 C 307.534,201.533 311.867,206.2 315.5,211.5C 310.382,207.388 306.048,202.722 302.5,197.5 Z"/></g>
<g><path style="opacity:1" fill="#8ec53f" d="M 254.5,166.5 C 257.294,169.933 260.961,171.6 265.5,171.5C 266.68,173.913 268.68,174.913 271.5,174.5C 273.366,178.111 276.366,180.278 280.5,181C 284.104,184.475 288.104,187.475 292.5,190C 294.564,194.198 297.897,196.698 302.5,197.5C 306.048,202.722 310.382,207.388 315.5,211.5C 316.08,213.749 317.413,215.415 319.5,216.5C 321.208,220.27 322.541,224.27 323.5,228.5C 325.592,229.825 327.259,231.491 328.5,233.5C 329.641,237.401 330.474,241.401 331,245.5C 334.107,247.266 336.607,249.6 338.5,252.5C 338.35,257.666 338.85,262.666 340,267.5C 339.101,265.484 337.767,263.817 336,262.5C 335.833,263.5 335.667,264.5 335.5,265.5C 339.107,271.763 339.44,278.263 336.5,285C 337.988,288.326 337.821,291.493 336,294.5C 334.991,292.975 334.491,291.308 334.5,289.5C 313.831,289.667 293.164,289.5 272.5,289C 274.869,288.464 276.869,287.297 278.5,285.5C 280.179,287.104 282.179,287.771 284.5,287.5C 284.5,286.5 284.5,285.5 284.5,284.5C 283.167,284.5 281.833,284.5 280.5,284.5C 279.533,280.149 281.2,277.815 285.5,277.5C 285.201,279.604 285.534,281.604 286.5,283.5C 287.5,283.167 288.167,282.5 288.5,281.5C 288.778,278.226 288.444,274.893 287.5,271.5C 283.843,271.026 283.676,269.693 287,267.5C 287.089,270.849 288.256,271.349 290.5,269C 289.605,265.905 289.605,262.738 290.5,259.5C 290.665,256.482 290.498,253.482 290,250.5C 289.617,249.944 289.117,249.611 288.5,249.5C 288.5,249.167 288.5,248.833 288.5,248.5C 285.714,240.777 280.381,237.777 272.5,239.5C 271.5,239.5 270.5,239.5 269.5,239.5C 266.085,240.375 263.085,242.042 260.5,244.5C 259.19,247.473 257.19,249.807 254.5,251.5C 253.571,252.689 253.238,254.022 253.5,255.5C 252.022,255.238 250.689,255.571 249.5,256.5C 245.788,261.047 241.622,265.047 237,268.5C 235.306,270.24 234.139,272.24 233.5,274.5C 231.097,274.393 229.264,275.393 228,277.5C 223.496,282.572 218.829,287.572 214,292.5C 213.517,293.448 213.351,294.448 213.5,295.5C 213.5,296.167 213.167,296.5 212.5,296.5C 208.194,296.303 206.194,298.303 206.5,302.5C 205.022,302.238 203.689,302.571 202.5,303.5C 201.5,305.167 200.167,306.5 198.5,307.5C 197.571,308.689 197.238,310.022 197.5,311.5C 195.289,311.967 193.289,312.967 191.5,314.5C 189.833,316.5 188.167,318.5 186.5,320.5C 180.693,323.639 176.693,328.306 174.5,334.5C 173.07,334.421 171.736,334.754 170.5,335.5C 168.049,338.134 165.215,340.134 162,341.5C 159.195,341.179 156.695,340.179 154.5,338.5C 154.443,337.391 154.11,336.391 153.5,335.5C 152.627,333.114 151.127,331.114 149,329.5C 148.257,327.559 148.424,325.726 149.5,324C 147.649,323.163 145.816,322.329 144,321.5C 143.667,322.167 143.333,322.833 143,323.5C 142.51,322.207 142.343,320.873 142.5,319.5C 141.167,319.5 139.833,319.5 138.5,319.5C 138.838,315.849 137.172,314.183 133.5,314.5C 133.162,311.675 134.162,309.508 136.5,308C 134.404,305.087 132.238,304.92 130,307.5C 129.193,303.551 128.693,303.551 128.5,307.5C 127.5,307.5 126.5,307.5 125.5,307.5C 124.167,307.5 122.833,307.5 121.5,307.5C 121.5,307.167 121.5,306.833 121.5,306.5C 102.9,304.285 96.4002,312.285 102,330.5C 104.034,332.442 106.2,334.275 108.5,336C 109.448,336.483 110.448,336.649 111.5,336.5C 111.5,336.833 111.5,337.167 111.5,337.5C 113.051,340.563 115.218,343.229 118,345.5C 118.18,347.488 118.014,349.488 117.5,351.5C 122.899,349.744 123.899,351.244 120.5,356C 120.833,356.333 121.167,356.667 121.5,357C 119.689,356.293 117.689,355.793 115.5,355.5C 114.43,360.977 116.43,364.644 121.5,366.5C 116.751,367.728 113.084,366.228 110.5,362C 102.667,361.833 94.8333,361.667 87,361.5C 78.5411,361.545 70.2077,362.212 62,363.5C 60.5232,362.556 59.5232,361.223 59,359.5C 58.4743,356.728 57.6409,354.062 56.5,351.5C 55.914,351.709 55.414,352.043 55,352.5C 54.3762,357.223 54.7095,361.89 56,366.5C 57.4411,367.26 58.9411,367.926 60.5,368.5C 64.1402,367.601 67.6402,367.267 71,367.5C 74.0131,368.922 74.1798,370.589 71.5,372.5C 70.3333,372.833 69.1667,373.167 68,373.5C 65.1671,372.503 62.3338,371.503 59.5,370.5C 56.1388,371.669 53.9721,370.336 53,366.5C 49.4998,354.669 46.6664,342.669 44.5,330.5C 43.8243,329.398 43.1577,328.398 42.5,327.5C 42.3335,317.161 42.5002,306.828 43,296.5C 44.1517,290.194 44.9851,283.861 45.5,277.5C 45.5,277.167 45.5,276.833 45.5,276.5C 47.9283,269.733 49.9283,262.733 51.5,255.5C 55.1768,250.802 57.5101,245.468 58.5,239.5C 60.9655,235.933 63.4655,232.266 66,228.5C 67.128,226.655 67.628,224.655 67.5,222.5C 69.8606,220.806 71.8606,218.806 73.5,216.5C 75.5374,214.359 78.0374,213.026 81,212.5C 84.2733,206.44 88.4399,200.94 93.5,196C 95.1341,195.506 96.8008,195.34 98.5,195.5C 98.7759,192.281 100.109,189.615 102.5,187.5C 102.973,186.094 103.973,185.427 105.5,185.5C 112.904,182.964 119.904,179.631 126.5,175.5C 127.386,174.675 127.719,173.675 127.5,172.5C 128.873,172.657 130.207,172.49 131.5,172C 135.274,168.976 139.274,166.81 143.5,165.5C 148.243,164.628 152.909,163.462 157.5,162C 158.056,161.617 158.389,161.117 158.5,160.5C 183.046,155.401 207.713,155.234 232.5,160C 239.406,163.542 246.739,165.709 254.5,166.5 Z"/></g>
<g><path style="opacity:0.192" fill="#c6de98" d="M 78.5,208.5 C 77.5806,211.089 75.914,213.089 73.5,214.5C 74.4194,211.911 76.086,209.911 78.5,208.5 Z"/></g>
<g><path style="opacity:1" fill="#91c04f" d="M 100.5,187.5 C 101.167,187.5 101.833,187.5 102.5,187.5C 100.109,189.615 98.7759,192.281 98.5,195.5C 96.8008,195.34 95.1341,195.506 93.5,196C 88.4399,200.94 84.2733,206.44 81,212.5C 78.0374,213.026 75.5374,214.359 73.5,216.5C 73.5,215.833 73.5,215.167 73.5,214.5C 75.914,213.089 77.5806,211.089 78.5,208.5C 85.8598,201.472 93.1931,194.472 100.5,187.5 Z"/></g>
<g><path style="opacity:0.212" fill="#bfdb9f" d="M 315.5,211.5 C 317.587,212.585 318.92,214.251 319.5,216.5C 317.413,215.415 316.08,213.749 315.5,211.5 Z"/></g>
<g><path style="opacity:0.31" fill="#c0d890" d="M 73.5,214.5 C 73.5,215.167 73.5,215.833 73.5,216.5C 71.8606,218.806 69.8606,220.806 67.5,222.5C 69.016,219.467 71.016,216.8 73.5,214.5 Z"/></g>
<g><path style="opacity:1" fill="#a4c76a" d="M 319.5,216.5 C 324.826,222.476 329.159,229.143 332.5,236.5C 330.57,236.229 329.236,235.229 328.5,233.5C 327.259,231.491 325.592,229.825 323.5,228.5C 322.541,224.27 321.208,220.27 319.5,216.5 Z"/></g>
<g><path style="opacity:0.643" fill="#b0cc7d" d="M 67.5,222.5 C 67.628,224.655 67.128,226.655 66,228.5C 63.4655,232.266 60.9655,235.933 58.5,239.5C 57.3468,242.47 55.6801,245.137 53.5,247.5C 56.884,238.394 61.5507,230.06 67.5,222.5 Z"/></g>
<g><path style="opacity:0.482" fill="#b7d189" d="M 269.5,239.5 C 270.5,239.5 271.5,239.5 272.5,239.5C 275.831,239.018 278.497,240.018 280.5,242.5C 276.182,241.246 271.848,241.246 267.5,242.5C 268.167,241.5 268.833,240.5 269.5,239.5 Z"/></g>
<g><path style="opacity:0.682" fill="#bfd894" d="M 332.5,236.5 C 335.535,239.902 337.535,243.902 338.5,248.5C 335.556,245.018 333.556,241.018 332.5,236.5 Z"/></g>
<g><path style="opacity:0.027" fill="#d8f5c9" d="M 267.5,242.5 C 266.833,243.833 265.833,244.833 264.5,245.5C 264.5,243.5 265.5,242.5 267.5,242.5 Z"/></g>
<g><path style="opacity:0.62" fill="#9ec25d" d="M 272.5,239.5 C 280.381,237.777 285.714,240.777 288.5,248.5C 287.833,248.167 287.167,247.833 286.5,247.5C 284.475,245.804 282.475,244.137 280.5,242.5C 278.497,240.018 275.831,239.018 272.5,239.5 Z"/></g>
<g><path style="opacity:1" fill="#96c05a" d="M 58.5,239.5 C 57.5101,245.468 55.1768,250.802 51.5,255.5C 51.5,254.167 51.5,252.833 51.5,251.5C 51.6596,249.847 52.3263,248.514 53.5,247.5C 55.6801,245.137 57.3468,242.47 58.5,239.5 Z"/></g>
<g><path style="opacity:0.82" fill="#a5c770" d="M 269.5,239.5 C 268.833,240.5 268.167,241.5 267.5,242.5C 265.5,242.5 264.5,243.5 264.5,245.5C 260.833,248.833 257.167,252.167 253.5,255.5C 253.238,254.022 253.571,252.689 254.5,251.5C 257.19,249.807 259.19,247.473 260.5,244.5C 263.085,242.042 266.085,240.375 269.5,239.5 Z"/></g>
<g><path style="opacity:1" fill="#92c24a" d="M 328.5,233.5 C 329.236,235.229 330.57,236.229 332.5,236.5C 333.556,241.018 335.556,245.018 338.5,248.5C 338.5,249.833 338.5,251.167 338.5,252.5C 336.607,249.6 334.107,247.266 331,245.5C 330.474,241.401 329.641,237.401 328.5,233.5 Z"/></g>
<g><path style="opacity:0.565" fill="#bcd98f" d="M 338.5,248.5 C 340.679,252.203 342.345,256.203 343.5,260.5C 341.658,258.81 340.325,256.81 339.5,254.5C 339.672,253.508 339.338,252.842 338.5,252.5C 338.5,251.167 338.5,249.833 338.5,248.5 Z"/></g>
<g><path style="opacity:0.051" fill="#d8f2ae" d="M 286.5,247.5 C 287.167,247.833 287.833,248.167 288.5,248.5C 288.5,248.833 288.5,249.167 288.5,249.5C 288.813,253.042 288.479,256.375 287.5,259.5C 287.693,255.434 287.36,251.434 286.5,247.5 Z"/></g>
<g><path style="opacity:0.914" fill="#98bd5e" d="M 288.5,249.5 C 289.117,249.611 289.617,249.944 290,250.5C 290.498,253.482 290.665,256.482 290.5,259.5C 287.894,265.107 283.894,269.44 278.5,272.5C 280.795,269.703 283.295,267.036 286,264.5C 287.009,262.975 287.509,261.308 287.5,259.5C 288.479,256.375 288.813,253.042 288.5,249.5 Z"/></g>
<g><path style="opacity:0.329" fill="#c5dc9a" d="M 51.5,251.5 C 51.5,252.833 51.5,254.167 51.5,255.5C 50.675,257.81 49.3417,259.81 47.5,261.5C 48.3208,257.873 49.6541,254.54 51.5,251.5 Z"/></g>
<g><path style="opacity:1" fill="#8ec53f" d="M 338.5,252.5 C 339.338,252.842 339.672,253.508 339.5,254.5C 341.137,262.014 343.137,269.348 345.5,276.5C 347.336,284.344 348.336,292.344 348.5,300.5C 348.456,313.087 347.623,325.42 346,337.5C 345,341.833 344,346.167 343,350.5C 340.756,346.277 339.59,346.611 339.5,351.5C 340.5,351.5 341.5,351.5 342.5,351.5C 340.068,357.566 338.735,363.899 338.5,370.5C 336.182,372.185 335.182,374.519 335.5,377.5C 334.178,377.33 333.011,377.663 332,378.5C 331.286,382.886 329.619,386.886 327,390.5C 325.846,391.743 324.512,392.743 323,393.5C 322.505,395.473 322.338,397.473 322.5,399.5C 320.992,401.181 319.992,403.181 319.5,405.5C 318.533,404.194 317.199,403.527 315.5,403.5C 316.211,407.281 315.045,410.281 312,412.5C 310.493,411.465 308.993,411.632 307.5,413C 308.337,414.011 308.67,415.178 308.5,416.5C 307.127,416.343 305.793,416.51 304.5,417C 305.138,418.707 305.138,420.54 304.5,422.5C 302.833,422.5 301.167,422.5 299.5,422.5C 299.698,425.77 298.198,427.77 295,428.5C 294.517,429.448 294.351,430.448 294.5,431.5C 292.071,431.884 289.737,432.551 287.5,433.5C 287.5,434.5 287.5,435.5 287.5,436.5C 283.42,437.544 279.753,439.544 276.5,442.5C 274.929,443.309 273.262,443.643 271.5,443.5C 271.5,444.5 271.5,445.5 271.5,446.5C 270.127,446.343 268.793,446.51 267.5,447C 261.999,450.606 256.332,453.773 250.5,456.5C 243.968,458.339 237.302,459.672 230.5,460.5C 223.851,461.732 217.184,462.899 210.5,464C 196.994,464.169 183.66,464.669 170.5,465.5C 169.833,465.5 169.5,465.167 169.5,464.5C 169.389,463.883 169.056,463.383 168.5,463C 165.518,462.502 162.518,462.335 159.5,462.5C 159.167,462.5 158.833,462.5 158.5,462.5C 157.571,461.685 156.571,460.852 155.5,460C 149.526,458.397 143.526,456.897 137.5,455.5C 135.165,452.835 132.165,451.502 128.5,451.5C 127.508,451.672 126.842,451.338 126.5,450.5C 125.358,448.567 123.692,447.067 121.5,446C 120.207,445.51 118.873,445.343 117.5,445.5C 115.326,445.25 113.659,444.25 112.5,442.5C 110.691,438.759 107.691,436.759 103.5,436.5C 102.367,433.029 100.033,431.029 96.5,430.5C 96.5,428.833 96.5,427.167 96.5,425.5C 95.5,425.5 94.5,425.5 93.5,425.5C 93.5086,423.692 93.0086,422.025 92,420.5C 89.4114,419.792 87.2447,418.459 85.5,416.5C 86.376,415.749 87.376,415.249 88.5,415C 85.5605,411.766 81.8938,409.933 77.5,409.5C 72.8412,404.849 69.1746,399.516 66.5,393.5C 65.1346,391.409 64.4679,389.076 64.5,386.5C 63.5,386.5 62.5,386.5 61.5,386.5C 61.4537,382.532 60.4537,378.865 58.5,375.5C 59.3094,373.929 59.6427,372.262 59.5,370.5C 62.3338,371.503 65.1671,372.503 68,373.5C 69.1667,373.167 70.3333,372.833 71.5,372.5C 74.1798,370.589 74.0131,368.922 71,367.5C 67.6402,367.267 64.1402,367.601 60.5,368.5C 58.9411,367.926 57.4411,367.26 56,366.5C 54.7095,361.89 54.3762,357.223 55,352.5C 55.414,352.043 55.914,351.709 56.5,351.5C 57.6409,354.062 58.4743,356.728 59,359.5C 59.5232,361.223 60.5232,362.556 62,363.5C 70.2077,362.212 78.5411,361.545 87,361.5C 94.8333,361.667 102.667,361.833 110.5,362C 113.084,366.228 116.751,367.728 121.5,366.5C 116.43,364.644 114.43,360.977 115.5,355.5C 117.689,355.793 119.689,356.293 121.5,357C 121.167,356.667 120.833,356.333 120.5,356C 123.899,351.244 122.899,349.744 117.5,351.5C 118.014,349.488 118.18,347.488 118,345.5C 115.218,343.229 113.051,340.563 111.5,337.5C 113.902,339.909 116.569,341.909 119.5,343.5C 121.167,347.167 123.833,349.833 127.5,351.5C 131.833,357.833 137.167,363.167 143.5,367.5C 146.799,372.466 150.799,376.799 155.5,380.5C 155.33,381.822 155.663,382.989 156.5,384C 162.982,385.087 168.982,383.921 174.5,380.5C 175.386,381.325 175.719,382.325 175.5,383.5C 180.208,383.992 180.708,382.659 177,379.5C 176.51,378.207 176.343,376.873 176.5,375.5C 179.522,375.572 181.688,374.238 183,371.5C 184.493,373.56 186.326,373.893 188.5,372.5C 186.921,371.333 185.588,370 184.5,368.5C 189.894,363.11 194.894,357.444 199.5,351.5C 205.778,346.56 211.778,341.227 217.5,335.5C 222.569,332.107 227.235,328.107 231.5,323.5C 232.429,322.311 232.762,320.978 232.5,319.5C 235.263,319.256 237.429,317.923 239,315.5C 239.124,317.936 238.624,320.269 237.5,322.5C 238.5,322.5 239.5,322.5 240.5,322.5C 240.351,321.448 240.517,320.448 241,319.5C 242.685,317.983 244.185,316.316 245.5,314.5C 244.835,312.899 244.501,311.399 244.5,310C 247.447,307.564 249.78,304.731 251.5,301.5C 255.565,297.441 259.232,293.107 262.5,288.5C 262.5,287.833 262.833,287.5 263.5,287.5C 269.5,283.5 274.5,278.5 278.5,272.5C 283.894,269.44 287.894,265.107 290.5,259.5C 289.605,262.738 289.605,265.905 290.5,269C 288.256,271.349 287.089,270.849 287,267.5C 283.676,269.693 283.843,271.026 287.5,271.5C 288.444,274.893 288.778,278.226 288.5,281.5C 288.167,282.5 287.5,283.167 286.5,283.5C 285.534,281.604 285.201,279.604 285.5,277.5C 281.2,277.815 279.533,280.149 280.5,284.5C 281.833,284.5 283.167,284.5 284.5,284.5C 284.5,285.5 284.5,286.5 284.5,287.5C 282.179,287.771 280.179,287.104 278.5,285.5C 276.869,287.297 274.869,288.464 272.5,289C 293.164,289.5 313.831,289.667 334.5,289.5C 334.491,291.308 334.991,292.975 336,294.5C 337.821,291.493 337.988,288.326 336.5,285C 339.44,278.263 339.107,271.763 335.5,265.5C 335.667,264.5 335.833,263.5 336,262.5C 337.767,263.817 339.101,265.484 340,267.5C 338.85,262.666 338.35,257.666 338.5,252.5 Z"/></g>
<g><path style="opacity:0.99" fill="#95bf53" d="M 51.5,255.5 C 49.9283,262.733 47.9283,269.733 45.5,276.5C 45.5,274.167 45.5,271.833 45.5,269.5C 46.9238,267.485 47.5905,265.152 47.5,262.5C 47.5,262.167 47.5,261.833 47.5,261.5C 49.3417,259.81 50.675,257.81 51.5,255.5 Z"/></g>
<g><path style="opacity:0.2" fill="#d1e6a6" d="M 47.5,262.5 C 47.5905,265.152 46.9238,267.485 45.5,269.5C 45.4095,266.848 46.0762,264.515 47.5,262.5 Z"/></g>
<g><path style="opacity:1" fill="#94c051" d="M 339.5,254.5 C 340.325,256.81 341.658,258.81 343.5,260.5C 343.5,260.833 343.5,261.167 343.5,261.5C 344.275,266.484 344.942,271.484 345.5,276.5C 343.137,269.348 341.137,262.014 339.5,254.5 Z"/></g>
<g><path style="opacity:0.827" fill="#a7c874" d="M 253.5,255.5 C 240.5,269.167 227.167,282.5 213.5,295.5C 213.351,294.448 213.517,293.448 214,292.5C 218.829,287.572 223.496,282.572 228,277.5C 229.264,275.393 231.097,274.393 233.5,274.5C 234.139,272.24 235.306,270.24 237,268.5C 241.622,265.047 245.788,261.047 249.5,256.5C 250.689,255.571 252.022,255.238 253.5,255.5 Z"/></g>
<g><path style="opacity:0.118" fill="#cbe2ad" d="M 346.5,272.5 C 347.924,274.515 348.59,276.848 348.5,279.5C 347.076,277.485 346.41,275.152 346.5,272.5 Z"/></g>
<g><path style="opacity:0.922" fill="#95ba5b" d="M 278.5,272.5 C 274.5,278.5 269.5,283.5 263.5,287.5C 268.167,282.167 273.167,277.167 278.5,272.5 Z"/></g>
<g><path style="opacity:0.361" fill="#beda94" d="M 348.5,280.5 C 350.885,290.384 351.885,300.551 351.5,311C 351.908,324.568 350.242,337.734 346.5,350.5C 348.315,337.534 349.648,324.534 350.5,311.5C 350.411,301.122 349.744,290.789 348.5,280.5 Z"/></g>
<g><path style="opacity:0.522" fill="#bdd792" d="M 45.5,269.5 C 45.5,271.833 45.5,274.167 45.5,276.5C 45.5,276.833 45.5,277.167 45.5,277.5C 43.5659,283.249 42.2326,289.249 41.5,295.5C 41.1667,295.5 40.8333,295.5 40.5,295.5C 40.9057,286.476 42.5723,277.809 45.5,269.5 Z"/></g>
<g><path style="opacity:0.792" fill="#a5c673" d="M 212.5,296.5 C 210.833,298.833 208.833,300.833 206.5,302.5C 206.194,298.303 208.194,296.303 212.5,296.5 Z"/></g>
<g><path style="opacity:0.278" fill="#d4eab3" d="M 287.5,259.5 C 287.509,261.308 287.009,262.975 286,264.5C 283.295,267.036 280.795,269.703 278.5,272.5C 273.167,277.167 268.167,282.167 263.5,287.5C 262.833,287.5 262.5,287.833 262.5,288.5C 254.833,295.5 247.5,302.833 240.5,310.5C 236.833,313.5 233.5,316.833 230.5,320.5C 219.833,330.5 209.5,340.833 199.5,351.5C 193.833,356.833 188.167,362.167 182.5,367.5C 216.082,332.417 250.248,297.75 285,263.5C 285.608,261.934 286.442,260.6 287.5,259.5 Z"/></g>
<g><path style="opacity:1" fill="#92be50" d="M 45.5,277.5 C 44.9851,283.861 44.1517,290.194 43,296.5C 42.5002,306.828 42.3335,317.161 42.5,327.5C 41.5056,317.013 41.1722,306.346 41.5,295.5C 42.2326,289.249 43.5659,283.249 45.5,277.5 Z"/></g>
<g><path style="opacity:1" fill="#90c14b" d="M 153.5,335.5 C 150.436,332.43 147.103,329.763 143.5,327.5C 141.833,323.833 139.167,321.167 135.5,319.5C 132.537,315.202 129.203,311.202 125.5,307.5C 126.5,307.5 127.5,307.5 128.5,307.5C 128.693,303.551 129.193,303.551 130,307.5C 132.238,304.92 134.404,305.087 136.5,308C 134.162,309.508 133.162,311.675 133.5,314.5C 137.172,314.183 138.838,315.849 138.5,319.5C 139.833,319.5 141.167,319.5 142.5,319.5C 142.343,320.873 142.51,322.207 143,323.5C 143.333,322.833 143.667,322.167 144,321.5C 145.816,322.329 147.649,323.163 149.5,324C 148.424,325.726 148.257,327.559 149,329.5C 151.127,331.114 152.627,333.114 153.5,335.5 Z"/></g>
<g><path style="opacity:0.945" fill="#96bb5f" d="M 262.5,288.5 C 259.232,293.107 255.565,297.441 251.5,301.5C 248.105,304.902 244.438,307.902 240.5,310.5C 247.5,302.833 254.833,295.5 262.5,288.5 Z"/></g>
<g><path style="opacity:0.384" fill="#a7c772" d="M 206.5,302.5 C 203.833,305.833 200.833,308.833 197.5,311.5C 197.238,310.022 197.571,308.689 198.5,307.5C 200.167,306.5 201.5,305.167 202.5,303.5C 203.689,302.571 205.022,302.238 206.5,302.5 Z"/></g>
<g><path style="opacity:0.624" fill="#b3d588" d="M 121.5,306.5 C 121.5,306.833 121.5,307.167 121.5,307.5C 114.318,306.551 108.651,308.884 104.5,314.5C 104.37,311.763 105.536,309.763 108,308.5C 112.346,306.85 116.846,306.183 121.5,306.5 Z"/></g>
<g><path style="opacity:0.227" fill="#bdde95" d="M 121.5,307.5 C 122.833,307.5 124.167,307.5 125.5,307.5C 129.203,311.202 132.537,315.202 135.5,319.5C 131.103,315.096 126.436,311.096 121.5,307.5 Z"/></g>
<g><path style="opacity:0.743" fill="#96bd5b" d="M 343.5,261.5 C 345.258,264.854 346.258,268.521 346.5,272.5C 346.41,275.152 347.076,277.485 348.5,279.5C 348.5,279.833 348.5,280.167 348.5,280.5C 349.744,290.789 350.411,301.122 350.5,311.5C 349.648,324.534 348.315,337.534 346.5,350.5C 346.5,350.833 346.5,351.167 346.5,351.5C 346.167,351.5 345.833,351.5 345.5,351.5C 346.457,342.804 347.624,334.138 349,325.5C 349.823,316.99 349.657,308.656 348.5,300.5C 348.336,292.344 347.336,284.344 345.5,276.5C 344.942,271.484 344.275,266.484 343.5,261.5 Z"/></g>
<g><path style="opacity:1" fill="#90c247" d="M 251.5,301.5 C 249.78,304.731 247.447,307.564 244.5,310C 244.501,311.399 244.835,312.899 245.5,314.5C 244.185,316.316 242.685,317.983 241,319.5C 240.517,320.448 240.351,321.448 240.5,322.5C 239.5,322.5 238.5,322.5 237.5,322.5C 238.624,320.269 239.124,317.936 239,315.5C 237.429,317.923 235.263,319.256 232.5,319.5C 232.762,320.978 232.429,322.311 231.5,323.5C 227.235,328.107 222.569,332.107 217.5,335.5C 222.229,330.776 226.563,325.776 230.5,320.5C 233.5,316.833 236.833,313.5 240.5,310.5C 244.438,307.902 248.105,304.902 251.5,301.5 Z"/></g>
<g><path style="opacity:0.224" fill="#c2e297" d="M 135.5,319.5 C 139.167,321.167 141.833,323.833 143.5,327.5C 140.5,325.167 137.833,322.5 135.5,319.5 Z"/></g>
<g><path style="opacity:0.945" fill="#a4c66e" d="M 197.5,311.5 C 190.167,319.5 182.5,327.167 174.5,334.5C 176.693,328.306 180.693,323.639 186.5,320.5C 188.167,318.5 189.833,316.5 191.5,314.5C 193.289,312.967 195.289,311.967 197.5,311.5 Z"/></g>
<g><path style="opacity:0.204" fill="#cde7a7" d="M 104.5,314.5 C 103.793,317.786 103.46,321.119 103.5,324.5C 102.844,323.378 102.511,322.045 102.5,320.5C 102.361,318.117 103.028,316.117 104.5,314.5 Z"/></g>
<g><path style="opacity:0.306" fill="#c4e09c" d="M 143.5,327.5 C 147.103,329.763 150.436,332.43 153.5,335.5C 154.11,336.391 154.443,337.391 154.5,338.5C 150.5,335.167 146.833,331.5 143.5,327.5 Z"/></g>
<g><path style="opacity:0.765" fill="#c5de9d" d="M 103.5,324.5 C 104.492,326.456 105.492,328.456 106.5,330.5C 104.087,329.32 103.087,327.32 103.5,324.5 Z"/></g>
<g><path style="opacity:1" fill="#91c24a" d="M 348.5,300.5 C 349.657,308.656 349.823,316.99 349,325.5C 347.624,334.138 346.457,342.804 345.5,351.5C 344.85,353.435 344.517,355.435 344.5,357.5C 342.5,361.833 340.5,366.167 338.5,370.5C 338.735,363.899 340.068,357.566 342.5,351.5C 341.5,351.5 340.5,351.5 339.5,351.5C 339.59,346.611 340.756,346.277 343,350.5C 344,346.167 345,341.833 346,337.5C 347.623,325.42 348.456,313.087 348.5,300.5 Z"/></g>
<g><path style="opacity:1" fill="#93c053" d="M 121.5,306.5 C 116.846,306.183 112.346,306.85 108,308.5C 105.536,309.763 104.37,311.763 104.5,314.5C 103.028,316.117 102.361,318.117 102.5,320.5C 102.511,322.045 102.844,323.378 103.5,324.5C 103.087,327.32 104.087,329.32 106.5,330.5C 107.167,333.167 108.833,334.833 111.5,335.5C 111.5,335.833 111.5,336.167 111.5,336.5C 110.448,336.649 109.448,336.483 108.5,336C 106.2,334.275 104.034,332.442 102,330.5C 96.4002,312.285 102.9,304.285 121.5,306.5 Z"/></g>
<g><path style="opacity:0.431" fill="#c8e39e" d="M 106.5,330.5 C 108.5,331.833 110.167,333.5 111.5,335.5C 108.833,334.833 107.167,333.167 106.5,330.5 Z"/></g>
<g><path style="opacity:0.357" fill="#c8e3a2" d="M 111.5,335.5 C 114.5,337.833 117.167,340.5 119.5,343.5C 116.569,341.909 113.902,339.909 111.5,337.5C 111.5,337.167 111.5,336.833 111.5,336.5C 111.5,336.167 111.5,335.833 111.5,335.5 Z"/></g>
<g><path style="opacity:0.549" fill="#acc979" d="M 174.5,334.5 C 171.668,337.501 169.002,340.667 166.5,344C 165.271,344.781 163.938,345.281 162.5,345.5C 159.223,343.891 156.556,341.558 154.5,338.5C 156.695,340.179 159.195,341.179 162,341.5C 165.215,340.134 168.049,338.134 170.5,335.5C 171.736,334.754 173.07,334.421 174.5,334.5 Z"/></g>
<g><path style="opacity:0.945" fill="#96ba5d" d="M 230.5,320.5 C 226.563,325.776 222.229,330.776 217.5,335.5C 211.778,341.227 205.778,346.56 199.5,351.5C 209.5,340.833 219.833,330.5 230.5,320.5 Z"/></g>
<g><path style="opacity:0.576" fill="#b4d186" d="M 40.5,295.5 C 40.8333,295.5 41.1667,295.5 41.5,295.5C 41.1722,306.346 41.5056,317.013 42.5,327.5C 43.8528,338.989 46.0194,350.322 49,361.5C 51.2031,363.669 52.0365,366.335 51.5,369.5C 41.1353,345.911 37.4686,321.244 40.5,295.5 Z"/></g>
<g><path style="opacity:0.298" fill="#c9e5a1" d="M 119.5,343.5 C 122.5,345.833 125.167,348.5 127.5,351.5C 123.833,349.833 121.167,347.167 119.5,343.5 Z"/></g>
<g><path style="opacity:0.333" fill="#cae5a7" d="M 127.5,351.5 C 133.167,356.5 138.5,361.833 143.5,367.5C 137.167,363.167 131.833,357.833 127.5,351.5 Z"/></g>
<g><path style="opacity:0.945" fill="#96ba5f" d="M 199.5,351.5 C 194.894,357.444 189.894,363.11 184.5,368.5C 182.098,370.909 179.431,372.909 176.5,374.5C 178.5,372.167 180.5,369.833 182.5,367.5C 188.167,362.167 193.833,356.833 199.5,351.5 Z"/></g>
<g><path style="opacity:0.137" fill="#d7e9bb" d="M 345.5,351.5 C 345.833,351.5 346.167,351.5 346.5,351.5C 346.405,353.786 345.738,355.786 344.5,357.5C 344.517,355.435 344.85,353.435 345.5,351.5 Z"/></g>
<g><path style="opacity:0.325" fill="#cfe8a6" d="M 143.5,367.5 C 147.665,371.497 151.998,375.33 156.5,379C 159.393,380.149 162.393,380.649 165.5,380.5C 162.302,381.7 158.969,381.7 155.5,380.5C 150.799,376.799 146.799,372.466 143.5,367.5 Z"/></g>
<g><path style="opacity:1" fill="#91c247" d="M 42.5,327.5 C 43.1577,328.398 43.8243,329.398 44.5,330.5C 46.6664,342.669 49.4998,354.669 53,366.5C 53.9721,370.336 56.1388,371.669 59.5,370.5C 59.6427,372.262 59.3094,373.929 58.5,375.5C 60.4537,378.865 61.4537,382.532 61.5,386.5C 62.5,386.5 63.5,386.5 64.5,386.5C 64.4679,389.076 65.1346,391.409 66.5,393.5C 65.7611,393.631 65.0944,393.464 64.5,393C 63.6238,390.136 61.9571,387.969 59.5,386.5C 59.1883,379.55 56.5216,373.884 51.5,369.5C 52.0365,366.335 51.2031,363.669 49,361.5C 46.0194,350.322 43.8528,338.989 42.5,327.5 Z"/></g>
<g><path style="opacity:0.173" fill="#dbebba" d="M 182.5,367.5 C 180.5,369.833 178.5,372.167 176.5,374.5C 174.704,375.793 173.037,377.293 171.5,379C 169.655,380.128 167.655,380.628 165.5,380.5C 167.019,379.59 168.685,378.757 170.5,378C 174.095,373.896 178.095,370.396 182.5,367.5 Z"/></g>
<g><path style="opacity:0.404" fill="#b9d68d" d="M 344.5,357.5 C 342.102,367.618 338.102,376.951 332.5,385.5C 332.5,383.5 332.5,381.5 332.5,379.5C 334.179,379.715 335.179,379.048 335.5,377.5C 335.182,374.519 336.182,372.185 338.5,370.5C 340.5,366.167 342.5,361.833 344.5,357.5 Z"/></g>
<g><path style="opacity:0.714" fill="#a4c776" d="M 51.5,369.5 C 56.5216,373.884 59.1883,379.55 59.5,386.5C 56.0448,381.254 53.3782,375.587 51.5,369.5 Z"/></g>
<g><path style="opacity:1" fill="#91c34a" d="M 184.5,368.5 C 185.588,370 186.921,371.333 188.5,372.5C 186.326,373.893 184.493,373.56 183,371.5C 181.688,374.238 179.522,375.572 176.5,375.5C 176.343,376.873 176.51,378.207 177,379.5C 180.708,382.659 180.208,383.992 175.5,383.5C 175.719,382.325 175.386,381.325 174.5,380.5C 168.982,383.921 162.982,385.087 156.5,384C 155.663,382.989 155.33,381.822 155.5,380.5C 158.969,381.7 162.302,381.7 165.5,380.5C 167.655,380.628 169.655,380.128 171.5,379C 173.037,377.293 174.704,375.793 176.5,374.5C 179.431,372.909 182.098,370.909 184.5,368.5 Z"/></g>
<g><path style="opacity:0.282" fill="#bad58a" d="M 332.5,385.5 C 331.921,388.331 330.588,390.664 328.5,392.5C 328.584,389.318 329.917,386.985 332.5,385.5 Z"/></g>
<g><path style="opacity:0.898" fill="#93bd51" d="M 335.5,377.5 C 335.179,379.048 334.179,379.715 332.5,379.5C 332.5,381.5 332.5,383.5 332.5,385.5C 329.917,386.985 328.584,389.318 328.5,392.5C 327.18,393.942 325.514,394.608 323.5,394.5C 323.784,396.415 323.451,398.081 322.5,399.5C 322.338,397.473 322.505,395.473 323,393.5C 324.512,392.743 325.846,391.743 327,390.5C 329.619,386.886 331.286,382.886 332,378.5C 333.011,377.663 334.178,377.33 335.5,377.5 Z"/></g>
<g><path style="opacity:0.91" fill="#b2d184" d="M 328.5,392.5 C 326.237,397.365 323.237,401.698 319.5,405.5C 319.992,403.181 320.992,401.181 322.5,399.5C 323.451,398.081 323.784,396.415 323.5,394.5C 325.514,394.608 327.18,393.942 328.5,392.5 Z"/></g>
<g><path style="opacity:0.988" fill="#a6c86f" d="M 59.5,386.5 C 61.9571,387.969 63.6238,390.136 64.5,393C 65.0944,393.464 65.7611,393.631 66.5,393.5C 69.1746,399.516 72.8412,404.849 77.5,409.5C 77.8333,410.833 78.1667,412.167 78.5,413.5C 70.4475,405.735 64.1141,396.735 59.5,386.5 Z"/></g>
<g><path style="opacity:0.22" fill="#c4e098" d="M 78.5,413.5 C 79.4959,413.414 80.3292,413.748 81,414.5C 83.41,417.397 85.5767,420.397 87.5,423.5C 83.7881,420.789 80.7881,417.456 78.5,413.5 Z"/></g>
<g><path style="opacity:1" fill="#a1ca64" d="M 319.5,405.5 C 315.61,412.062 310.61,417.729 304.5,422.5C 305.138,420.54 305.138,418.707 304.5,417C 305.793,416.51 307.127,416.343 308.5,416.5C 308.67,415.178 308.337,414.011 307.5,413C 308.993,411.632 310.493,411.465 312,412.5C 315.045,410.281 316.211,407.281 315.5,403.5C 317.199,403.527 318.533,404.194 319.5,405.5 Z"/></g>
<g><path style="opacity:1" fill="#93c249" d="M 77.5,409.5 C 81.8938,409.933 85.5605,411.766 88.5,415C 87.376,415.249 86.376,415.749 85.5,416.5C 87.2447,418.459 89.4114,419.792 92,420.5C 93.0086,422.025 93.5086,423.692 93.5,425.5C 94.5,425.5 95.5,425.5 96.5,425.5C 96.5,427.167 96.5,428.833 96.5,430.5C 96.1667,430.5 95.8333,430.5 95.5,430.5C 94.5,430.167 93.8333,429.5 93.5,428.5C 92.0892,426.086 90.0892,424.419 87.5,423.5C 85.5767,420.397 83.41,417.397 81,414.5C 80.3292,413.748 79.4959,413.414 78.5,413.5C 78.1667,412.167 77.8333,410.833 77.5,409.5 Z"/></g>
<g><path style="opacity:0.251" fill="#cddf9f" d="M 87.5,423.5 C 90.0892,424.419 92.0892,426.086 93.5,428.5C 90.9108,427.581 88.9108,425.914 87.5,423.5 Z"/></g>
<g><path style="opacity:0.557" fill="#aacb76" d="M 304.5,422.5 C 301.789,426.212 298.456,429.212 294.5,431.5C 294.351,430.448 294.517,429.448 295,428.5C 298.198,427.77 299.698,425.77 299.5,422.5C 301.167,422.5 302.833,422.5 304.5,422.5 Z"/></g>
<g><path style="opacity:0.886" fill="#accd78" d="M 95.5,430.5 C 95.8333,430.5 96.1667,430.5 96.5,430.5C 100.033,431.029 102.367,433.029 103.5,436.5C 100.467,434.984 97.8003,432.984 95.5,430.5 Z"/></g>
<g><path style="opacity:0.753" fill="#a8c875" d="M 294.5,431.5 C 281.717,442.899 267.05,451.232 250.5,456.5C 256.332,453.773 261.999,450.606 267.5,447C 268.793,446.51 270.127,446.343 271.5,446.5C 271.5,445.5 271.5,444.5 271.5,443.5C 273.262,443.643 274.929,443.309 276.5,442.5C 279.753,439.544 283.42,437.544 287.5,436.5C 287.5,435.5 287.5,434.5 287.5,433.5C 289.737,432.551 292.071,431.884 294.5,431.5 Z"/></g>
<g><path style="opacity:0.804" fill="#a4c76f" d="M 103.5,436.5 C 107.691,436.759 110.691,438.759 112.5,442.5C 108.975,441.241 105.975,439.241 103.5,436.5 Z"/></g>
<g><path style="opacity:0.816" fill="#aacb79" d="M 117.5,445.5 C 118.873,445.343 120.207,445.51 121.5,446C 123.692,447.067 125.358,448.567 126.5,450.5C 123.008,449.59 120.008,447.924 117.5,445.5 Z"/></g>
<g><path style="opacity:0.667" fill="#aece7c" d="M 128.5,451.5 C 132.165,451.502 135.165,452.835 137.5,455.5C 134.088,454.925 131.088,453.592 128.5,451.5 Z"/></g>
<g><path style="opacity:0.408" fill="#b1cf80" d="M 137.5,455.5 C 143.526,456.897 149.526,458.397 155.5,460C 156.571,460.852 157.571,461.685 158.5,462.5C 151.079,461.138 144.079,458.804 137.5,455.5 Z"/></g>
<g><path style="opacity:0.753" fill="#a8c975" d="M 250.5,456.5 C 239.461,461.51 227.795,464.51 215.5,465.5C 219.214,463.678 223.381,462.678 228,462.5C 229.376,462.316 230.209,461.649 230.5,460.5C 237.302,459.672 243.968,458.339 250.5,456.5 Z"/></g>
<g><path style="opacity:0.612" fill="#a7c970" d="M 159.5,462.5 C 162.518,462.335 165.518,462.502 168.5,463C 169.056,463.383 169.389,463.883 169.5,464.5C 165.922,464.451 162.589,463.785 159.5,462.5 Z"/></g>
<g><path style="opacity:0.771" fill="#9ac15d" d="M 230.5,460.5 C 230.209,461.649 229.376,462.316 228,462.5C 223.381,462.678 219.214,463.678 215.5,465.5C 200.556,466.749 185.556,466.749 170.5,465.5C 183.66,464.669 196.994,464.169 210.5,464C 217.184,462.899 223.851,461.732 230.5,460.5 Z"/></g>
</svg>
